<svg width="59" height="43" viewBox="0 0 59 43" fill="none" xmlns="http://www.w3.org/2000/svg">
<g filter="url(#filter0_d_1236_210)">
<rect x="31" width="24.8889" height="35" rx="3" fill="#FFF8F4"/>
<rect x="31.5" y="0.5" width="23.8889" height="34" rx="2.5" stroke="#0D0A08"/>
</g>
<mask id="path-3-inside-1_1236_210" fill="white">
<path d="M31 4C31 1.79086 32.7909 0 35 0H51.8889C54.098 0 55.8889 1.79086 55.8889 4V31C55.8889 33.2091 54.098 35 51.8889 35H35C32.7909 35 31 33.2091 31 31V4Z"/>
</mask>
<path d="M28.5 4C28.5 0.410149 31.4101 -2.5 35 -2.5H49.3889C52.9787 -2.5 55.8889 0.410149 55.8889 4C55.8889 3.17157 54.098 2.5 51.8889 2.5H35C34.1716 2.5 33.5 3.17157 33.5 4H28.5ZM55.8889 35H31H55.8889ZM35 35C31.4101 35 28.5 32.0899 28.5 28.5V4C28.5 0.410149 31.4101 -2.5 35 -2.5V2.5C34.1716 2.5 33.5 3.17157 33.5 4V31C33.5 33.2091 34.1716 35 35 35ZM55.8889 0V35V0Z" fill="#0D0A08" fill-opacity="0.14" mask="url(#path-3-inside-1_1236_210)"/>
<circle cx="43.4444" cy="8.33323" r="3.38889" stroke="#0D0A08"/>
<circle cx="43.4445" cy="23.1113" r="6.5" stroke="#0D0A08"/>
<circle cx="43.4445" cy="23.1111" r="2.61111" stroke="#0D0A08"/>
<rect x="13" y="41" width="19" height="2" fill="#0D0A08"/>
<rect x="0.5" y="10.5" width="44" height="27" rx="2.5" fill="#FFF8F4" stroke="#0D0A08"/>
<mask id="path-10-inside-2_1236_210" fill="white">
<path d="M0 14C0 11.7909 1.79086 10 4 10H41C43.2091 10 45 11.7909 45 14V34C45 36.2091 43.2091 38 41 38H4C1.79086 38 0 36.2091 0 34V14Z"/>
</mask>
<path d="M-2.5 14C-2.5 10.4101 0.410149 7.5 4 7.5H41C44.5899 7.5 47.5 10.4101 47.5 14H42.5C42.5 13.1716 41.8284 12.5 41 12.5H4C3.17157 12.5 2.5 13.1716 2.5 14H-2.5ZM45 38H0H45ZM4 38C0.410149 38 -2.5 35.0899 -2.5 31.5V14C-2.5 10.4101 0.410149 7.5 4 7.5V12.5C3.17157 12.5 2.5 13.1716 2.5 14V34C2.5 36.2091 3.17157 38 4 38ZM41 7.5C44.5899 7.5 47.5 10.4101 47.5 14V31.5C47.5 35.0899 44.5899 38 41 38C41.8284 38 42.5 36.2091 42.5 34V14C42.5 13.1716 41.8284 12.5 41 12.5V7.5Z" fill="#0D0A08" fill-opacity="0.14" mask="url(#path-10-inside-2_1236_210)"/>
<path d="M7 29.3191L10.8452 22.6791C11.0152 22.3856 11.4218 22.3429 11.6491 22.5947L15.2499 26.5849C15.5002 26.8622 15.9552 26.7771 16.0883 26.4279L20.2172 15.5931C20.395 15.1266 21.0715 15.18 21.1738 15.6686L24.5259 31.6719C24.6368 32.2015 25.3928 32.2021 25.5045 31.6726L27.3464 22.9415C27.4262 22.5629 27.8874 22.4146 28.173 22.6756L31.3981 25.624C31.5809 25.7912 31.8585 25.7993 32.0508 25.643L38 20.8085" stroke="#FF856A" stroke-linecap="round"/>
<defs>
<filter id="filter0_d_1236_210" x="31" y="0" width="27.8889" height="37" filterUnits="userSpaceOnUse" color-interpolation-filters="sRGB">
<feFlood flood-opacity="0" result="BackgroundImageFix"/>
<feColorMatrix in="SourceAlpha" type="matrix" values="0 0 0 0 0 0 0 0 0 0 0 0 0 0 0 0 0 0 127 0" result="hardAlpha"/>
<feOffset dx="3" dy="2"/>
<feComposite in2="hardAlpha" operator="out"/>
<feColorMatrix type="matrix" values="0 0 0 0 0.0509804 0 0 0 0 0.0392157 0 0 0 0 0.0313726 0 0 0 0.14 0"/>
<feBlend mode="normal" in2="BackgroundImageFix" result="effect1_dropShadow_1236_210"/>
<feBlend mode="normal" in="SourceGraphic" in2="effect1_dropShadow_1236_210" result="shape"/>
</filter>
</defs>
</svg>
