<svg width="22" height="22" viewBox="0 0 22 22" fill="none" xmlns="http://www.w3.org/2000/svg">
<path d="M9.65693 1.395C10.3903 0.633274 11.6097 0.633274 12.3431 1.395C12.8414 1.91256 13.5927 2.09775 14.2744 1.87104C15.2778 1.53738 16.3575 2.10406 16.6529 3.11935C16.8536 3.8092 17.4328 4.32234 18.1418 4.43842C19.1853 4.60926 19.878 5.6128 19.6677 6.64906C19.5248 7.35315 19.7992 8.0767 20.3731 8.50897C21.2177 9.14518 21.3646 10.3557 20.6969 11.1755C20.2431 11.7326 20.1499 12.5008 20.4571 13.1502C20.9093 14.106 20.4769 15.2462 19.5046 15.6618C18.8439 15.9441 18.4044 16.581 18.3746 17.2988C18.3308 18.3553 17.418 19.1639 16.364 19.0801C15.6478 19.0231 14.9626 19.3827 14.6027 20.0045C14.0729 20.9196 12.8889 21.2114 11.9946 20.6473C11.3869 20.264 10.6131 20.264 10.0054 20.6473C9.11106 21.2114 7.9271 20.9196 7.39734 20.0045C7.03738 19.3827 6.35219 19.0231 5.63601 19.0801C4.58195 19.1639 3.66922 18.3553 3.62541 17.2988C3.59564 16.581 3.15605 15.9441 2.49543 15.6618C1.52314 15.2462 1.09074 14.106 1.54291 13.1502C1.85015 12.5008 1.75687 11.7326 1.30315 11.1755C0.635368 10.3557 0.782349 9.14518 1.62692 8.50897C2.20077 8.0767 2.47518 7.35315 2.33229 6.64906C2.12201 5.6128 2.8147 4.60926 3.85819 4.43842C4.5672 4.32234 5.14642 3.8092 5.34711 3.11935C5.64248 2.10406 6.7222 1.53738 7.72556 1.87104C8.4073 2.09775 9.15864 1.91256 9.65693 1.395Z" fill="#5C8DF7"/>
<path d="M16.7489 7.23434C17.0837 7.54679 17.0837 8.05421 16.7489 8.36666L9.89253 14.7657C9.55775 15.0781 9.01406 15.0781 8.67928 14.7657L5.25109 11.5662C4.9163 11.2537 4.9163 10.7463 5.25109 10.4338C5.58587 10.1214 6.12956 10.1214 6.46435 10.4338L9.28724 13.0659L15.5383 7.23434C15.8731 6.92189 16.4168 6.92189 16.7516 7.23434H16.7489Z" fill="#01061E"/>
</svg>
