<svg width="46" height="52" viewBox="0 0 46 52" fill="none" xmlns="http://www.w3.org/2000/svg">
<rect x="15.9429" y="6.88794" width="25.7915" height="29.9631" rx="2.5" transform="rotate(8.7595 15.9429 6.88794)" fill="#FFFCFA" stroke="#0D0A08"/>
<path d="M18.3435 25.6378C18.2648 20.7222 20.2271 13.805 27.9048 14.988C34.9954 16.0806 34.9619 22.9829 33.4925 27.972" stroke="#FF4343"/>
<rect x="17.8062" y="24.7646" width="3.23083" height="5.70372" rx="1" transform="rotate(-2.12267 17.8062 24.7646)" fill="#0D0A08"/>
<rect x="31.2336" y="26.21" width="3.23083" height="5.70372" rx="1" transform="rotate(19.6395 31.2336 26.21)" fill="#0D0A08"/>
<path d="M2.63194 8.25194C2.60599 8.87561 2.2358 13.72 7.57011 13.1933C8.01054 13.1498 11.3565 12.4174 12.419 10.5959C12.8775 9.80975 13.1775 8.7827 12.0054 6.24701C10.533 3.06159 7.45485 5.25994 6.88901 1.03931C4.10575 2.69663 2.69777 6.6699 2.63194 8.25194Z" fill="#FF4343" stroke="#0D0A08" stroke-linecap="round"/>
<g filter="url(#filter0_i_1246_1515)">
<rect x="5.57983" y="13.5764" width="7.37491" height="27.4655" transform="rotate(-18.3386 5.57983 13.5764)" fill="#FFFCFA"/>
</g>
<rect x="6.21176" y="13.8937" width="6.37491" height="26.4655" transform="rotate(-18.3386 6.21176 13.8937)" stroke="#0D0A08"/>
<g filter="url(#filter1_i_1246_1515)">
<rect x="34.4197" y="12.0017" width="7.37491" height="27.4655" transform="rotate(16.9628 34.4197 12.0017)" fill="#FFFCFA"/>
</g>
<rect x="34.752" y="12.6258" width="6.37491" height="26.4655" transform="rotate(16.9628 34.752 12.6258)" stroke="#0D0A08"/>
<rect x="37.0474" y="12.803" width="1.88154" height="22.1247" transform="rotate(16.9628 37.0474 12.803)" fill="#0D0A08"/>
<path d="M41.082 13.6677L35.0169 11.8177L40.3619 5.16131L41.082 13.6677Z" fill="#FF4343" stroke="#0D0A08" stroke-width="0.7"/>
<rect x="20.9906" y="3.53408" width="6.67491" height="26.7655" rx="3.33746" fill="#FFFCFA" stroke="#0D0A08" stroke-width="0.7"/>
<path d="M21.3457 5.70215C21.3457 4.69574 22.1616 3.87988 23.168 3.87988H23.3354V25.9465H21.3457V5.70215Z" fill="#0D0A08" fill-opacity="0.14"/>
<rect x="23.3352" y="0.343506" width="1.98417" height="2.01883" fill="#FF4343"/>
<g filter="url(#filter2_d_1246_1515)">
<path d="M9.95841 45.4465L8.04537 23.4465H41.9546L40.0416 45.4465H9.95841Z" fill="#FFFCFA" stroke="#0D0A08"/>
<g filter="url(#filter3_i_1246_1515)">
<rect x="7.5" y="44.9465" width="35" height="5" fill="#FFFCFA"/>
</g>
<rect x="8" y="45.4465" width="34" height="4" stroke="#0D0A08"/>
</g>
<mask id="mask0_1246_1515" style="mask-type:alpha" maskUnits="userSpaceOnUse" x="7" y="22" width="36" height="24">
<path d="M7.5 22.9465H42.418L40.4227 45.9465H9.49531L7.5 22.9465Z" fill="#D9D9D9"/>
</mask>
<g mask="url(#mask0_1246_1515)">
<path d="M10.763 46.75L8.86018 24.25H43.1398L41.237 46.75H10.763Z" stroke="#0D0A08" stroke-opacity="0.14" stroke-width="2.5"/>
</g>
<defs>
<filter id="filter0_i_1246_1515" x="5.57983" y="11.2561" width="15.6418" height="28.3909" filterUnits="userSpaceOnUse" color-interpolation-filters="sRGB">
<feFlood flood-opacity="0" result="BackgroundImageFix"/>
<feBlend mode="normal" in="SourceGraphic" in2="BackgroundImageFix" result="shape"/>
<feColorMatrix in="SourceAlpha" type="matrix" values="0 0 0 0 0 0 0 0 0 0 0 0 0 0 0 0 0 0 127 0" result="hardAlpha"/>
<feOffset dx="3"/>
<feComposite in2="hardAlpha" operator="arithmetic" k2="-1" k3="1"/>
<feColorMatrix type="matrix" values="0 0 0 0 0.0509804 0 0 0 0 0.0392157 0 0 0 0 0.0313726 0 0 0 0.14 0"/>
<feBlend mode="normal" in2="shape" result="effect1_innerShadow_1246_1515"/>
</filter>
<filter id="filter1_i_1246_1515" x="26.4065" y="12.0017" width="15.0671" height="28.4224" filterUnits="userSpaceOnUse" color-interpolation-filters="sRGB">
<feFlood flood-opacity="0" result="BackgroundImageFix"/>
<feBlend mode="normal" in="SourceGraphic" in2="BackgroundImageFix" result="shape"/>
<feColorMatrix in="SourceAlpha" type="matrix" values="0 0 0 0 0 0 0 0 0 0 0 0 0 0 0 0 0 0 127 0" result="hardAlpha"/>
<feOffset dx="2"/>
<feComposite in2="hardAlpha" operator="arithmetic" k2="-1" k3="1"/>
<feColorMatrix type="matrix" values="0 0 0 0 0.0509804 0 0 0 0 0.0392157 0 0 0 0 0.0313726 0 0 0 0.14 0"/>
<feBlend mode="normal" in2="shape" result="effect1_innerShadow_1246_1515"/>
</filter>
<filter id="filter2_d_1246_1515" x="7.5" y="22.9465" width="38" height="29" filterUnits="userSpaceOnUse" color-interpolation-filters="sRGB">
<feFlood flood-opacity="0" result="BackgroundImageFix"/>
<feColorMatrix in="SourceAlpha" type="matrix" values="0 0 0 0 0 0 0 0 0 0 0 0 0 0 0 0 0 0 127 0" result="hardAlpha"/>
<feOffset dx="3" dy="2"/>
<feComposite in2="hardAlpha" operator="out"/>
<feColorMatrix type="matrix" values="0 0 0 0 0.0509804 0 0 0 0 0.0392157 0 0 0 0 0.0313726 0 0 0 0.14 0"/>
<feBlend mode="normal" in2="BackgroundImageFix" result="effect1_dropShadow_1246_1515"/>
<feBlend mode="normal" in="SourceGraphic" in2="effect1_dropShadow_1246_1515" result="shape"/>
</filter>
<filter id="filter3_i_1246_1515" x="7.5" y="44.9465" width="35" height="5" filterUnits="userSpaceOnUse" color-interpolation-filters="sRGB">
<feFlood flood-opacity="0" result="BackgroundImageFix"/>
<feBlend mode="normal" in="SourceGraphic" in2="BackgroundImageFix" result="shape"/>
<feColorMatrix in="SourceAlpha" type="matrix" values="0 0 0 0 0 0 0 0 0 0 0 0 0 0 0 0 0 0 127 0" result="hardAlpha"/>
<feOffset dx="2" dy="2"/>
<feComposite in2="hardAlpha" operator="arithmetic" k2="-1" k3="1"/>
<feColorMatrix type="matrix" values="0 0 0 0 0.0509804 0 0 0 0 0.0392157 0 0 0 0 0.0313726 0 0 0 0.14 0"/>
<feBlend mode="normal" in2="shape" result="effect1_innerShadow_1246_1515"/>
</filter>
</defs>
</svg>
