<svg width="17" height="18" viewBox="0 0 17 18" fill="none" xmlns="http://www.w3.org/2000/svg">
<g filter="url(#filter0_d_1211_163)">
<path d="M5.97813 1.16953C6.22188 0.941417 6.6 0.944542 6.84375 1.17266C7.70625 1.98199 8.51563 2.85382 9.27188 3.79753C9.61563 3.34755 10.0063 2.85695 10.4281 2.45697C10.675 2.22573 11.0563 2.22573 11.3031 2.46009C12.3844 3.49129 13.3 4.85372 13.9438 6.14741C14.5781 7.42235 15 8.72541 15 9.64411C15 13.6314 11.8813 17 8 17C4.075 17 1 13.6283 1 9.64099C1 8.44105 1.55625 6.97549 2.41875 5.52557C3.29063 4.05376 4.52188 2.51946 5.97813 1.16953ZM8.05312 14.0001C8.84375 14.0001 9.54375 13.7814 10.2031 13.3439C11.5188 12.4252 11.8719 10.5878 11.0813 9.14414C10.9406 8.8629 10.5813 8.84415 10.3781 9.08164L9.59062 9.99722C9.38437 10.2347 9.0125 10.2285 8.81875 9.9816C8.30312 9.32538 7.38125 8.15356 6.85625 7.48797C6.65937 7.23798 6.28437 7.23486 6.08437 7.48484C5.02812 8.8129 4.49688 9.65036 4.49688 10.5909C4.5 12.7315 6.08125 14.0001 8.05312 14.0001Z" fill="#FFE710"/>
<path d="M5.97813 1.16953C6.22188 0.941417 6.6 0.944542 6.84375 1.17266C7.70625 1.98199 8.51563 2.85382 9.27188 3.79753C9.61563 3.34755 10.0063 2.85695 10.4281 2.45697C10.675 2.22573 11.0563 2.22573 11.3031 2.46009C12.3844 3.49129 13.3 4.85372 13.9438 6.14741C14.5781 7.42235 15 8.72541 15 9.64411C15 13.6314 11.8813 17 8 17C4.075 17 1 13.6283 1 9.64099C1 8.44105 1.55625 6.97549 2.41875 5.52557C3.29063 4.05376 4.52188 2.51946 5.97813 1.16953ZM8.05312 14.0001C8.84375 14.0001 9.54375 13.7814 10.2031 13.3439C11.5188 12.4252 11.8719 10.5878 11.0813 9.14414C10.9406 8.8629 10.5813 8.84415 10.3781 9.08164L9.59062 9.99722C9.38437 10.2347 9.0125 10.2285 8.81875 9.9816C8.30312 9.32538 7.38125 8.15356 6.85625 7.48797C6.65937 7.23798 6.28437 7.23486 6.08437 7.48484C5.02812 8.8129 4.49688 9.65036 4.49688 10.5909C4.5 12.7315 6.08125 14.0001 8.05312 14.0001Z" stroke="#534439" stroke-width="0.5"/>
</g>
<rect x="4" y="6" width="9" height="8" fill="#FFF5DB"/>
<path d="M5.97813 1.16953C6.22188 0.941417 6.6 0.944542 6.84375 1.17266C7.70625 1.98199 8.51563 2.85382 9.27188 3.79753C9.61563 3.34755 10.0063 2.85695 10.4281 2.45697C10.675 2.22573 11.0563 2.22573 11.3031 2.46009C12.3844 3.49129 13.3 4.85372 13.9438 6.14741C14.5781 7.42235 15 8.72541 15 9.64411C15 13.6314 11.8813 17 8 17C4.075 17 1 13.6283 1 9.64099C1 8.44105 1.55625 6.97549 2.41875 5.52557C3.29063 4.05376 4.52188 2.51946 5.97813 1.16953ZM8.05312 14.0001C8.84375 14.0001 9.54375 13.7814 10.2031 13.3439C11.5188 12.4252 11.8719 10.5878 11.0813 9.14414C10.9406 8.8629 10.5813 8.84415 10.3781 9.08164L9.59062 9.99722C9.38437 10.2347 9.0125 10.2285 8.81875 9.9816C8.30312 9.32538 7.38125 8.15356 6.85625 7.48797C6.65937 7.23798 6.28437 7.23486 6.08437 7.48484C5.02812 8.8129 4.49688 9.65036 4.49688 10.5909C4.5 12.7315 6.08125 14.0001 8.05312 14.0001Z" fill="#FFE710" stroke="#534439" stroke-width="0.5"/>
<defs>
<filter id="filter0_d_1211_163" x="0.75" y="0.35" width="15.9" height="17.3" filterUnits="userSpaceOnUse" color-interpolation-filters="sRGB">
<feFlood flood-opacity="0" result="BackgroundImageFix"/>
<feColorMatrix in="SourceAlpha" type="matrix" values="0 0 0 0 0 0 0 0 0 0 0 0 0 0 0 0 0 0 127 0" result="hardAlpha"/>
<feOffset dx="1"/>
<feGaussianBlur stdDeviation="0.2"/>
<feComposite in2="hardAlpha" operator="out"/>
<feColorMatrix type="matrix" values="0 0 0 0 0 0 0 0 0 0 0 0 0 0 0 0 0 0 0.25 0"/>
<feBlend mode="normal" in2="BackgroundImageFix" result="effect1_dropShadow_1211_163"/>
<feBlend mode="normal" in="SourceGraphic" in2="effect1_dropShadow_1211_163" result="shape"/>
</filter>
</defs>
</svg>
