<svg width="44" height="47" viewBox="0 0 44 47" fill="none" xmlns="http://www.w3.org/2000/svg">
<g filter="url(#filter0_d_1246_1493)">
<rect width="35" height="45" rx="3" fill="#FFFCFA"/>
<rect x="0.5" y="0.5" width="34" height="44" rx="2.5" stroke="#0D0A08"/>
</g>
<mask id="path-3-inside-1_1246_1493" fill="white">
<path d="M0 4C0 1.79086 1.79086 0 4 0H31C33.2091 0 35 1.79086 35 4V41C35 43.2091 33.2091 45 31 45H4C1.79086 45 0 43.2091 0 41V4Z"/>
</mask>
<path d="M-2.5 4C-2.5 0.410149 0.410149 -2.5 4 -2.5H28.5C32.0899 -2.5 35 0.410149 35 4C35 3.17157 33.2091 2.5 31 2.5H4C3.17157 2.5 2.5 3.17157 2.5 4H-2.5ZM35 45H0H35ZM4 45C0.410149 45 -2.5 42.0899 -2.5 38.5V4C-2.5 0.410149 0.410149 -2.5 4 -2.5V2.5C3.17157 2.5 2.5 3.17157 2.5 4V41C2.5 43.2091 3.17157 45 4 45ZM35 0V45V0Z" fill="#0D0A08" fill-opacity="0.14" mask="url(#path-3-inside-1_1246_1493)"/>
<rect x="5" y="7" width="14" height="1" rx="0.5" fill="#0D0A08"/>
<rect x="5" y="15" width="24" height="1" rx="0.5" fill="#0D0A08"/>
<rect x="5" y="19" width="24" height="1" rx="0.5" fill="#0D0A08"/>
<rect x="5" y="23" width="24" height="1" rx="0.5" fill="#0D0A08"/>
<rect x="5" y="27" width="9" height="1" rx="0.5" fill="#0D0A08"/>
<rect x="5" y="35" width="14" height="1" rx="0.5" fill="#FF4343"/>
<path d="M21.0652 30.5012C21.0652 30.5012 18.9289 34.66 19.4646 35.1583C20.0002 35.6566 23.9939 33.2256 23.9939 33.2256L21.0652 30.5012Z" fill="#FF4343"/>
<g filter="url(#filter1_i_1246_1493)">
<path d="M38.0928 12.1965L41.0215 14.921L23.9939 33.2256L21.0652 30.5012L38.0928 12.1965Z" fill="#FFFCFA"/>
</g>
<path d="M38.1107 12.6912L40.5269 14.9388L23.976 32.731L21.5598 30.4833L38.1107 12.6912Z" stroke="#0D0A08" stroke-width="0.7"/>
<path d="M39.7111 10.9706C39.9557 10.7077 40.3669 10.6929 40.6298 10.9374L42.0942 12.2996C42.357 12.5441 42.3719 12.9554 42.1274 13.2182L40.3224 15.1585L37.9062 12.9109L39.7111 10.9706Z" fill="#FFFCFA" stroke="#0D0A08" stroke-width="0.7"/>
<defs>
<filter id="filter0_d_1246_1493" x="0" y="0" width="38" height="47" filterUnits="userSpaceOnUse" color-interpolation-filters="sRGB">
<feFlood flood-opacity="0" result="BackgroundImageFix"/>
<feColorMatrix in="SourceAlpha" type="matrix" values="0 0 0 0 0 0 0 0 0 0 0 0 0 0 0 0 0 0 127 0" result="hardAlpha"/>
<feOffset dx="3" dy="2"/>
<feComposite in2="hardAlpha" operator="out"/>
<feColorMatrix type="matrix" values="0 0 0 0 0.0509804 0 0 0 0 0.0392157 0 0 0 0 0.0313726 0 0 0 0.14 0"/>
<feBlend mode="normal" in2="BackgroundImageFix" result="effect1_dropShadow_1246_1493"/>
<feBlend mode="normal" in="SourceGraphic" in2="effect1_dropShadow_1246_1493" result="shape"/>
</filter>
<filter id="filter1_i_1246_1493" x="21.0652" y="12.1965" width="19.9563" height="21.0291" filterUnits="userSpaceOnUse" color-interpolation-filters="sRGB">
<feFlood flood-opacity="0" result="BackgroundImageFix"/>
<feBlend mode="normal" in="SourceGraphic" in2="BackgroundImageFix" result="shape"/>
<feColorMatrix in="SourceAlpha" type="matrix" values="0 0 0 0 0 0 0 0 0 0 0 0 0 0 0 0 0 0 127 0" result="hardAlpha"/>
<feOffset dx="1.5" dy="1"/>
<feComposite in2="hardAlpha" operator="arithmetic" k2="-1" k3="1"/>
<feColorMatrix type="matrix" values="0 0 0 0 0.0509804 0 0 0 0 0.0392157 0 0 0 0 0.0313726 0 0 0 0.14 0"/>
<feBlend mode="normal" in2="shape" result="effect1_innerShadow_1246_1493"/>
</filter>
</defs>
</svg>
