<svg width="85" height="46" viewBox="0 0 85 46" fill="none" xmlns="http://www.w3.org/2000/svg">
<mask id="mask0_1327_1515" style="mask-type:alpha" maskUnits="userSpaceOnUse" x="43" y="0" width="42" height="42">
<circle cx="64" cy="21" r="21" fill="#D9D9D9"/>
</mask>
<g mask="url(#mask0_1327_1515)">
<path d="M94 34.5C94 56.8675 80.1208 75 63 75C45.8792 75 32 56.8675 32 34.5C32 12.1325 45.8792 -6 63 -6C80.1208 -6 94 12.1325 94 34.5ZM37.4536 34.5C37.4536 52.9326 48.8911 67.8751 63 67.8751C77.1089 67.8751 88.5464 52.9326 88.5464 34.5C88.5464 16.0674 77.1089 1.1249 63 1.1249C48.8911 1.1249 37.4536 16.0674 37.4536 34.5Z" fill="#FF4343"/>
<path d="M93 8.5C93 30.8675 79.1208 49 62 49C44.8792 49 31 30.8675 31 8.5C31 -13.8675 44.8792 -32 62 -32C79.1208 -32 93 -13.8675 93 8.5ZM36.4536 8.5C36.4536 26.9326 47.8911 41.8751 62 41.8751C76.1089 41.8751 87.5464 26.9326 87.5464 8.5C87.5464 -9.93256 76.1089 -24.8751 62 -24.8751C47.8911 -24.8751 36.4536 -9.93256 36.4536 8.5Z" fill="#0D0A08"/>
<path d="M100 13.5C100 35.8675 86.1208 54 69 54C51.8792 54 38 35.8675 38 13.5C38 -8.86753 51.8792 -27 69 -27C86.1208 -27 100 -8.86753 100 13.5ZM43.4536 13.5C43.4536 31.9326 54.8911 46.8751 69 46.8751C83.1089 46.8751 94.5464 31.9326 94.5464 13.5C94.5464 -4.93256 83.1089 -19.8751 69 -19.8751C54.8911 -19.8751 43.4536 -4.93256 43.4536 13.5Z" fill="#FCD77F"/>
<path d="M100 13.5C100 35.8675 86.1208 54 69 54C51.8792 54 38 35.8675 38 13.5C38 -8.86753 51.8792 -27 69 -27C86.1208 -27 100 -8.86753 100 13.5ZM43.4536 13.5C43.4536 31.9326 54.8911 46.8751 69 46.8751C83.1089 46.8751 94.5464 31.9326 94.5464 13.5C94.5464 -4.93256 83.1089 -19.8751 69 -19.8751C54.8911 -19.8751 43.4536 -4.93256 43.4536 13.5Z" fill="#95ABE0"/>
</g>
<g filter="url(#filter0_d_1327_1515)">
<path d="M2.071 21V10.92H3.611V15.484L3.296 15.141C3.604 14.7117 3.975 14.392 4.409 14.182C4.843 13.9673 5.30033 13.86 5.781 13.86C6.411 13.86 6.936 13.9883 7.356 14.245C7.776 14.497 8.091 14.8237 8.301 15.225C8.511 15.6263 8.616 16.044 8.616 16.478V21H7.076V16.919C7.076 16.4337 6.92433 16.0393 6.621 15.736C6.31767 15.4327 5.90467 15.2787 5.382 15.274C5.03667 15.274 4.731 15.351 4.465 15.505C4.199 15.6543 3.989 15.8667 3.835 16.142C3.68567 16.4173 3.611 16.737 3.611 17.101V21H2.071ZM13.8693 21.21C13.3886 21.21 12.9663 21.1213 12.6023 20.944C12.2383 20.762 11.9536 20.5077 11.7483 20.181C11.5476 19.8497 11.4473 19.46 11.4473 19.012C11.4473 18.634 11.5429 18.2933 11.7343 17.99C11.9256 17.682 12.2219 17.4277 12.6233 17.227C13.0293 17.0263 13.5496 16.8933 14.1843 16.828C14.8189 16.758 15.5819 16.7673 16.4733 16.856L16.5013 17.92C15.8666 17.8313 15.3206 17.794 14.8633 17.808C14.4059 17.822 14.0303 17.8803 13.7363 17.983C13.4469 18.081 13.2323 18.214 13.0923 18.382C12.9569 18.5453 12.8893 18.7343 12.8893 18.949C12.8893 19.285 13.0083 19.544 13.2463 19.726C13.4889 19.908 13.8203 19.999 14.2403 19.999C14.5996 19.999 14.9216 19.9337 15.2063 19.803C15.4909 19.6723 15.7149 19.488 15.8783 19.25C16.0463 19.012 16.1303 18.732 16.1303 18.41V16.569C16.1303 16.261 16.0649 15.995 15.9343 15.771C15.8036 15.5423 15.6053 15.365 15.3393 15.239C15.0733 15.113 14.7419 15.05 14.3453 15.05C13.9813 15.05 13.6219 15.106 13.2673 15.218C12.9126 15.3253 12.5743 15.4957 12.2523 15.729L11.8183 14.595C12.2523 14.301 12.7049 14.0933 13.1763 13.972C13.6476 13.8507 14.1003 13.79 14.5343 13.79C15.1783 13.79 15.7289 13.8927 16.1863 14.098C16.6483 14.2987 17.0029 14.6043 17.2503 15.015C17.4976 15.421 17.6213 15.9343 17.6213 16.555V21H16.2353V20.181C16.0019 20.5123 15.6776 20.7667 15.2623 20.944C14.8469 21.1213 14.3826 21.21 13.8693 21.21ZM20.9289 21V14.07H22.4689V15.029C22.7302 14.595 23.0476 14.2917 23.4209 14.119C23.7942 13.9417 24.1956 13.853 24.6249 13.853C24.7649 13.853 24.8979 13.86 25.0239 13.874C25.1499 13.888 25.2712 13.909 25.3879 13.937L25.1849 15.526C25.0449 15.484 24.9026 15.4513 24.7579 15.428C24.6132 15.4047 24.4686 15.393 24.3239 15.393C23.7872 15.393 23.3439 15.5587 22.9939 15.89C22.6439 16.2167 22.4689 16.6623 22.4689 17.227V21H20.9289ZM27.9311 21V14.07H29.4711V15.022C29.6577 14.7513 29.8724 14.532 30.1151 14.364C30.3577 14.1913 30.6144 14.0653 30.8851 13.986C31.1557 13.902 31.4311 13.86 31.7111 13.86C32.2757 13.86 32.7447 13.9837 33.1181 14.231C33.4961 14.4783 33.7621 14.7957 33.9161 15.183C34.2614 14.679 34.6627 14.3337 35.1201 14.147C35.5774 13.9557 36.0371 13.86 36.4991 13.86C37.1384 13.86 37.6494 13.986 38.0321 14.238C38.4147 14.49 38.6901 14.8143 38.8581 15.211C39.0307 15.6077 39.1171 16.016 39.1171 16.436V21H37.5771V16.884C37.5771 16.4033 37.4441 16.016 37.1781 15.722C36.9167 15.4233 36.5341 15.274 36.0301 15.274C35.6987 15.274 35.4024 15.3463 35.1411 15.491C34.8797 15.6357 34.6721 15.8363 34.5181 16.093C34.3687 16.345 34.2941 16.6367 34.2941 16.968V21H32.7541V16.884C32.7541 16.4033 32.6234 16.016 32.3621 15.722C32.1007 15.4233 31.7157 15.274 31.2071 15.274C30.8804 15.274 30.5841 15.3463 30.3181 15.491C30.0567 15.6357 29.8491 15.8363 29.6951 16.093C29.5457 16.345 29.4711 16.6367 29.4711 16.968V21H27.9311ZM45.6098 21.21C44.8865 21.21 44.2401 21.0443 43.6708 20.713C43.1061 20.377 42.6628 19.9313 42.3408 19.376C42.0188 18.816 41.8578 18.2023 41.8578 17.535C41.8578 17.0403 41.9488 16.5737 42.1308 16.135C42.3175 15.6917 42.5788 15.2997 42.9148 14.959C43.2555 14.6183 43.6545 14.35 44.1118 14.154C44.5691 13.958 45.0708 13.86 45.6168 13.86C46.3401 13.86 46.9841 14.028 47.5488 14.364C48.1181 14.6953 48.5638 15.141 48.8858 15.701C49.2078 16.2563 49.3688 16.8677 49.3688 17.535C49.3688 18.025 49.2755 18.4917 49.0888 18.935C48.9068 19.3783 48.6478 19.7703 48.3118 20.111C47.9758 20.4517 47.5791 20.72 47.1218 20.916C46.6645 21.112 46.1605 21.21 45.6098 21.21ZM45.6098 19.845C46.0391 19.845 46.4195 19.7517 46.7508 19.565C47.0868 19.3737 47.3505 19.1053 47.5418 18.76C47.7331 18.4147 47.8288 18.0063 47.8288 17.535C47.8288 17.0637 47.7331 16.6553 47.5418 16.31C47.3505 15.96 47.0868 15.6917 46.7508 15.505C46.4195 15.3183 46.0391 15.225 45.6098 15.225C45.1805 15.225 44.7978 15.3183 44.4618 15.505C44.1305 15.6917 43.8691 15.96 43.6778 16.31C43.4911 16.6553 43.3978 17.0637 43.3978 17.535C43.3978 18.0063 43.4935 18.4147 43.6848 18.76C43.8761 19.1053 44.1375 19.3737 44.4688 19.565C44.8048 19.7517 45.1851 19.845 45.6098 19.845ZM52.1757 21V14.07H53.7157V14.952C54.005 14.5647 54.341 14.287 54.7237 14.119C55.1064 13.9463 55.503 13.86 55.9137 13.86C56.5484 13.86 57.0734 13.986 57.4887 14.238C57.904 14.49 58.212 14.8143 58.4127 15.211C58.618 15.6077 58.7207 16.016 58.7207 16.436V21H57.1807V16.912C57.1807 16.4173 57.0314 16.0207 56.7327 15.722C56.4387 15.4233 56.028 15.274 55.5007 15.274C55.1554 15.274 54.8474 15.351 54.5767 15.505C54.3107 15.659 54.1007 15.8737 53.9467 16.149C53.7927 16.4197 53.7157 16.737 53.7157 17.101V21H52.1757ZM62.5073 24.136C62.2553 24.136 62.0079 24.108 61.7653 24.052C61.5226 23.996 61.2846 23.9003 61.0513 23.765L61.4013 22.449C61.5459 22.5423 61.7046 22.6123 61.8773 22.659C62.0499 22.7057 62.2039 22.729 62.3393 22.729C62.6659 22.729 62.9226 22.652 63.1093 22.498C63.2959 22.344 63.4429 22.106 63.5503 21.784L63.7813 21.112L61.0513 14.07H62.7383L64.6563 19.446L66.5253 14.07H68.1563L65.1603 22.001C64.9456 22.5563 64.7053 22.988 64.4393 23.296C64.1733 23.6087 63.8793 23.8257 63.5573 23.947C63.2353 24.073 62.8853 24.136 62.5073 24.136ZM4.409 39.203C3.835 39.203 3.29833 39.1213 2.799 38.958C2.29967 38.7947 1.87967 38.5753 1.539 38.3L2.12 37.173C2.442 37.425 2.80367 37.6233 3.205 37.768C3.611 37.9127 4.01 37.985 4.402 37.985C4.85467 37.985 5.207 37.9057 5.459 37.747C5.711 37.5883 5.837 37.3667 5.837 37.082C5.837 36.8113 5.72733 36.613 5.508 36.487C5.29333 36.3563 4.88267 36.221 4.276 36.081C3.40333 35.899 2.76867 35.6423 2.372 35.311C1.98 34.975 1.784 34.5107 1.784 33.918C1.784 33.5027 1.89833 33.1363 2.127 32.819C2.36033 32.497 2.68 32.245 3.086 32.063C3.492 31.881 3.961 31.79 4.493 31.79C5.011 31.79 5.49867 31.8647 5.956 32.014C6.41333 32.1587 6.81 32.364 7.146 32.63L6.6 33.764C6.42733 33.61 6.22667 33.477 5.998 33.365C5.76933 33.253 5.52667 33.1667 5.27 33.106C5.018 33.0407 4.766 33.008 4.514 33.008C4.122 33.008 3.80233 33.085 3.555 33.239C3.31233 33.3883 3.191 33.596 3.191 33.862C3.191 34.1373 3.30767 34.3403 3.541 34.471C3.77433 34.6017 4.17567 34.7323 4.745 34.863C5.641 35.059 6.28267 35.3203 6.67 35.647C7.05733 35.9737 7.251 36.4263 7.251 37.005C7.251 37.4483 7.132 37.8357 6.894 38.167C6.656 38.4937 6.32233 38.748 5.893 38.93C5.46833 39.112 4.97367 39.203 4.409 39.203ZM10.249 41.94V32.07H11.635V33.043C11.9103 32.693 12.2626 32.4083 12.692 32.189C13.1213 31.9697 13.651 31.86 14.281 31.86C14.9576 31.86 15.5573 32.021 16.08 32.343C16.6073 32.6603 17.018 33.0967 17.312 33.652C17.606 34.2027 17.753 34.8303 17.753 35.535C17.753 36.0437 17.669 36.522 17.501 36.97C17.333 37.4133 17.0926 37.803 16.78 38.139C16.472 38.475 16.1033 38.7387 15.674 38.93C15.2493 39.1167 14.778 39.21 14.26 39.21C13.7186 39.21 13.2426 39.112 12.832 38.916C12.4213 38.72 12.0713 38.4563 11.782 38.125V41.94H10.249ZM14.001 37.845C14.4303 37.845 14.8106 37.7517 15.142 37.565C15.478 37.3737 15.7393 37.1053 15.926 36.76C16.1173 36.4147 16.213 36.0063 16.213 35.535C16.213 35.0637 16.1173 34.6553 15.926 34.31C15.7346 33.96 15.471 33.6917 15.135 33.505C14.8036 33.3183 14.4256 33.225 14.001 33.225C13.5716 33.225 13.189 33.3183 12.853 33.505C12.5216 33.6917 12.2603 33.96 12.069 34.31C11.8776 34.6553 11.782 35.0637 11.782 35.535C11.782 36.0063 11.8776 36.4147 12.069 36.76C12.2603 37.1053 12.5216 37.3737 12.853 37.565C13.189 37.7517 13.5716 37.845 14.001 37.845ZM20.5598 39V28.92H22.0998V33.484L21.7848 33.141C22.0928 32.7117 22.4638 32.392 22.8978 32.182C23.3318 31.9673 23.7891 31.86 24.2698 31.86C24.8998 31.86 25.4248 31.9883 25.8448 32.245C26.2648 32.497 26.5798 32.8237 26.7898 33.225C26.9998 33.6263 27.1048 34.044 27.1048 34.478V39H25.5648V34.919C25.5648 34.4337 25.4131 34.0393 25.1098 33.736C24.8064 33.4327 24.3934 33.2787 23.8708 33.274C23.5254 33.274 23.2198 33.351 22.9538 33.505C22.6878 33.6543 22.4778 33.8667 22.3238 34.142C22.1744 34.4173 22.0998 34.737 22.0998 35.101V39H20.5598ZM33.597 39.21C32.8504 39.21 32.1947 39.0583 31.63 38.755C31.0654 38.447 30.6244 38.0177 30.307 37.467C29.9944 36.9163 29.838 36.277 29.838 35.549C29.838 35.017 29.929 34.527 30.111 34.079C30.293 33.6263 30.5497 33.2343 30.881 32.903C31.2124 32.5717 31.5997 32.315 32.043 32.133C32.491 31.951 32.9787 31.86 33.506 31.86C34.08 31.86 34.591 31.9627 35.039 32.168C35.487 32.3687 35.858 32.651 36.152 33.015C36.4507 33.379 36.6607 33.806 36.782 34.296C36.908 34.7813 36.929 35.3087 36.845 35.878H31.315C31.3057 36.2933 31.3967 36.6573 31.588 36.97C31.7794 37.278 32.0524 37.5183 32.407 37.691C32.7664 37.8637 33.1887 37.95 33.674 37.95C34.066 37.95 34.444 37.8917 34.808 37.775C35.1767 37.6537 35.5104 37.4763 35.809 37.243L36.404 38.349C36.18 38.531 35.9094 38.6873 35.592 38.818C35.2747 38.944 34.9434 39.0397 34.598 39.105C34.2527 39.175 33.919 39.21 33.597 39.21ZM31.406 34.744H35.333C35.319 34.2213 35.151 33.8107 34.829 33.512C34.5117 33.2133 34.059 33.064 33.471 33.064C32.9017 33.064 32.428 33.2133 32.05 33.512C31.6767 33.8107 31.462 34.2213 31.406 34.744ZM39.7048 39V32.07H41.2448V33.029C41.5061 32.595 41.8234 32.2917 42.1968 32.119C42.5701 31.9417 42.9714 31.853 43.4008 31.853C43.5408 31.853 43.6738 31.86 43.7998 31.874C43.9258 31.888 44.0471 31.909 44.1638 31.937L43.9608 33.526C43.8208 33.484 43.6784 33.4513 43.5338 33.428C43.3891 33.4047 43.2444 33.393 43.0998 33.393C42.5631 33.393 42.1198 33.5587 41.7698 33.89C41.4198 34.2167 41.2448 34.6623 41.2448 35.227V39H39.7048ZM49.7342 39.21C48.9876 39.21 48.3319 39.0583 47.7672 38.755C47.2026 38.447 46.7616 38.0177 46.4442 37.467C46.1316 36.9163 45.9752 36.277 45.9752 35.549C45.9752 35.017 46.0662 34.527 46.2482 34.079C46.4302 33.6263 46.6869 33.2343 47.0182 32.903C47.3496 32.5717 47.7369 32.315 48.1802 32.133C48.6282 31.951 49.1159 31.86 49.6432 31.86C50.2172 31.86 50.7282 31.9627 51.1762 32.168C51.6242 32.3687 51.9952 32.651 52.2892 33.015C52.5879 33.379 52.7979 33.806 52.9192 34.296C53.0452 34.7813 53.0662 35.3087 52.9822 35.878H47.4522C47.4429 36.2933 47.5339 36.6573 47.7252 36.97C47.9166 37.278 48.1896 37.5183 48.5442 37.691C48.9036 37.8637 49.3259 37.95 49.8112 37.95C50.2032 37.95 50.5812 37.8917 50.9452 37.775C51.3139 37.6537 51.6476 37.4763 51.9462 37.243L52.5412 38.349C52.3172 38.531 52.0466 38.6873 51.7292 38.818C51.4119 38.944 51.0806 39.0397 50.7352 39.105C50.3899 39.175 50.0562 39.21 49.7342 39.21ZM47.5432 34.744H51.4702C51.4562 34.2213 51.2882 33.8107 50.9662 33.512C50.6489 33.2133 50.1962 33.064 49.6082 33.064C49.0389 33.064 48.5652 33.2133 48.1872 33.512C47.8139 33.8107 47.5992 34.2213 47.5432 34.744Z" fill="#0D0A08"/>
</g>
<circle cx="75.5" cy="19.5" r="1.5" fill="#0D0A08"/>
<defs>
<filter id="filter0_d_1327_1515" x="0.239063" y="10.92" width="69.2172" height="34.32" filterUnits="userSpaceOnUse" color-interpolation-filters="sRGB">
<feFlood flood-opacity="0" result="BackgroundImageFix"/>
<feColorMatrix in="SourceAlpha" type="matrix" values="0 0 0 0 0 0 0 0 0 0 0 0 0 0 0 0 0 0 127 0" result="hardAlpha"/>
<feOffset dy="2"/>
<feGaussianBlur stdDeviation="0.65"/>
<feComposite in2="hardAlpha" operator="out"/>
<feColorMatrix type="matrix" values="0 0 0 0 0 0 0 0 0 0 0 0 0 0 0 0 0 0 0.2 0"/>
<feBlend mode="normal" in2="BackgroundImageFix" result="effect1_dropShadow_1327_1515"/>
<feBlend mode="normal" in="SourceGraphic" in2="effect1_dropShadow_1327_1515" result="shape"/>
</filter>
</defs>
</svg>
