<svg width="87" height="44" viewBox="0 0 87 44" fill="none" xmlns="http://www.w3.org/2000/svg">
<mask id="mask0_1327_1542" style="mask-type:alpha" maskUnits="userSpaceOnUse" x="45" y="0" width="42" height="42">
<circle cx="66" cy="21" r="21" fill="#D9D9D9"/>
</mask>
<g mask="url(#mask0_1327_1542)">
<path d="M96 34.5C96 56.8675 82.1208 75 65 75C47.8792 75 34 56.8675 34 34.5C34 12.1325 47.8792 -6 65 -6C82.1208 -6 96 12.1325 96 34.5ZM39.4536 34.5C39.4536 52.9326 50.8911 67.8751 65 67.8751C79.1089 67.8751 90.5464 52.9326 90.5464 34.5C90.5464 16.0674 79.1089 1.1249 65 1.1249C50.8911 1.1249 39.4536 16.0674 39.4536 34.5Z" fill="#FF4343"/>
<path d="M95 8.5C95 30.8675 81.1208 49 64 49C46.8792 49 33 30.8675 33 8.5C33 -13.8675 46.8792 -32 64 -32C81.1208 -32 95 -13.8675 95 8.5ZM38.4536 8.5C38.4536 26.9326 49.8911 41.8751 64 41.8751C78.1089 41.8751 89.5464 26.9326 89.5464 8.5C89.5464 -9.93256 78.1089 -24.8751 64 -24.8751C49.8911 -24.8751 38.4536 -9.93256 38.4536 8.5Z" fill="#FFF8F4"/>
<path d="M102 13.5C102 35.8675 88.1208 54 71 54C53.8792 54 40 35.8675 40 13.5C40 -8.86753 53.8792 -27 71 -27C88.1208 -27 102 -8.86753 102 13.5ZM45.4536 13.5C45.4536 31.9326 56.8911 46.8751 71 46.8751C85.1089 46.8751 96.5464 31.9326 96.5464 13.5C96.5464 -4.93256 85.1089 -19.8751 71 -19.8751C56.8911 -19.8751 45.4536 -4.93256 45.4536 13.5Z" fill="#FCD77F"/>
<path d="M102 13.5C102 35.8675 88.1208 54 71 54C53.8792 54 40 35.8675 40 13.5C40 -8.86753 53.8792 -27 71 -27C88.1208 -27 102 -8.86753 102 13.5ZM45.4536 13.5C45.4536 31.9326 56.8911 46.8751 71 46.8751C85.1089 46.8751 96.5464 31.9326 96.5464 13.5C96.5464 -4.93256 85.1089 -19.8751 71 -19.8751C56.8911 -19.8751 45.4536 -4.93256 45.4536 13.5Z" fill="#95ABE0"/>
</g>
<g filter="url(#filter0_d_1327_1542)">
<path d="M2.68 17.64C2.55867 17.64 2.456 17.6027 2.372 17.528C2.29733 17.444 2.26 17.3413 2.26 17.22V10.486C2.26 10.3553 2.29733 10.2527 2.372 10.178C2.456 10.1033 2.55867 10.066 2.68 10.066C2.81067 10.066 2.91333 10.1033 2.988 10.178C3.06267 10.2527 3.1 10.3553 3.1 10.486V17.22C3.1 17.3413 3.06267 17.444 2.988 17.528C2.91333 17.6027 2.81067 17.64 2.68 17.64ZM8.882 21C8.76067 21 8.658 20.9627 8.574 20.888C8.49933 20.804 8.462 20.7013 8.462 20.58V16.814C8.462 16.198 8.34067 15.6893 8.098 15.288C7.86467 14.8867 7.54267 14.588 7.132 14.392C6.73067 14.1867 6.27333 14.084 5.76 14.084C5.256 14.084 4.80333 14.182 4.402 14.378C4.00067 14.5647 3.68333 14.826 3.45 15.162C3.21667 15.498 3.1 15.876 3.1 16.296H2.4C2.43733 15.7173 2.61 15.1993 2.918 14.742C3.226 14.2753 3.62733 13.9113 4.122 13.65C4.61667 13.3793 5.16267 13.244 5.76 13.244C6.432 13.244 7.034 13.384 7.566 13.664C8.10733 13.9347 8.532 14.336 8.84 14.868C9.148 15.3907 9.302 16.0393 9.302 16.814V20.58C9.302 20.7013 9.26 20.804 9.176 20.888C9.10133 20.9627 9.00333 21 8.882 21ZM2.68 21C2.55867 21 2.456 20.9627 2.372 20.888C2.29733 20.804 2.26 20.7013 2.26 20.58V13.762C2.26 13.6313 2.29733 13.5287 2.372 13.454C2.456 13.3793 2.55867 13.342 2.68 13.342C2.81067 13.342 2.91333 13.3793 2.988 13.454C3.06267 13.5287 3.1 13.6313 3.1 13.762V20.58C3.1 20.7013 3.06267 20.804 2.988 20.888C2.91333 20.9627 2.81067 21 2.68 21ZM16.4399 21.084C15.6933 21.084 15.0213 20.916 14.4239 20.58C13.8359 20.2347 13.3693 19.768 13.0239 19.18C12.6879 18.5827 12.5199 17.9153 12.5199 17.178C12.5199 16.4313 12.6879 15.764 13.0239 15.176C13.3693 14.5787 13.8359 14.112 14.4239 13.776C15.0213 13.4307 15.6933 13.258 16.4399 13.258C17.1866 13.258 17.8539 13.4307 18.4419 13.776C19.0299 14.112 19.4919 14.5787 19.8279 15.176C20.1733 15.764 20.3459 16.4313 20.3459 17.178L19.9959 17.738C19.9959 18.3727 19.8373 18.942 19.5199 19.446C19.2119 19.95 18.7919 20.3513 18.2599 20.65C17.7279 20.9393 17.1213 21.084 16.4399 21.084ZM16.4399 20.3C17.0279 20.3 17.5506 20.1647 18.0079 19.894C18.4746 19.614 18.8386 19.2407 19.0999 18.774C19.3706 18.298 19.5059 17.766 19.5059 17.178C19.5059 16.5807 19.3706 16.0487 19.0999 15.582C18.8386 15.106 18.4746 14.7327 18.0079 14.462C17.5506 14.182 17.0279 14.042 16.4399 14.042C15.8613 14.042 15.3386 14.182 14.8719 14.462C14.4053 14.7327 14.0366 15.106 13.7659 15.582C13.4953 16.0487 13.3599 16.5807 13.3599 17.178C13.3599 17.766 13.4953 18.298 13.7659 18.774C14.0366 19.2407 14.4053 19.614 14.8719 19.894C15.3386 20.1647 15.8613 20.3 16.4399 20.3ZM19.9259 21C19.8046 21 19.7019 20.9627 19.6179 20.888C19.5433 20.804 19.5059 20.7013 19.5059 20.58V18.018L19.7719 17.178H20.3459V20.58C20.3459 20.7013 20.3086 20.804 20.2339 20.888C20.1593 20.9627 20.0566 21 19.9259 21ZM23.9819 16.324C24.0379 15.7267 24.2012 15.1993 24.4719 14.742C24.7425 14.2753 25.0925 13.9113 25.5219 13.65C25.9512 13.3887 26.4272 13.258 26.9499 13.258C27.3045 13.258 27.5799 13.3 27.7759 13.384C27.9719 13.468 28.0465 13.6173 27.9999 13.832C27.9719 13.972 27.9065 14.056 27.8039 14.084C27.7012 14.112 27.5752 14.1167 27.4259 14.098C27.2859 14.07 27.1272 14.056 26.9499 14.056C26.4832 14.056 26.0679 14.154 25.7039 14.35C25.3399 14.546 25.0552 14.8167 24.8499 15.162C24.6445 15.498 24.5419 15.8853 24.5419 16.324H23.9819ZM24.1219 21C24.0005 21 23.8979 20.9627 23.8139 20.888C23.7392 20.804 23.7019 20.7013 23.7019 20.58V13.762C23.7019 13.6313 23.7392 13.5287 23.8139 13.454C23.8979 13.3793 24.0005 13.342 24.1219 13.342C24.2525 13.342 24.3552 13.3793 24.4299 13.454C24.5045 13.5287 24.5419 13.6313 24.5419 13.762V20.58C24.5419 20.7013 24.5045 20.804 24.4299 20.888C24.3552 20.9627 24.2525 21 24.1219 21ZM41.6425 21C41.5212 21 41.4185 20.9627 41.3345 20.888C41.2599 20.804 41.2225 20.7013 41.2225 20.58V16.534C41.2225 15.8153 41.0312 15.2273 40.6485 14.77C40.2752 14.3127 39.7852 14.084 39.1785 14.084C38.5345 14.084 38.0072 14.2987 37.5965 14.728C37.1952 15.148 37.0039 15.7173 37.0225 16.436H36.1825C36.2012 15.792 36.3412 15.232 36.6025 14.756C36.8639 14.28 37.2185 13.9113 37.6665 13.65C38.1145 13.3793 38.6185 13.244 39.1785 13.244C39.7479 13.244 40.2472 13.384 40.6765 13.664C41.1059 13.944 41.4419 14.3313 41.6845 14.826C41.9365 15.3207 42.0625 15.89 42.0625 16.534V20.58C42.0625 20.7013 42.0252 20.804 41.9505 20.888C41.8759 20.9627 41.7732 21 41.6425 21ZM31.5205 21C31.3992 21 31.2965 20.9627 31.2125 20.888C31.1379 20.804 31.1005 20.7013 31.1005 20.58V13.762C31.1005 13.6313 31.1379 13.5287 31.2125 13.454C31.2965 13.3793 31.3992 13.342 31.5205 13.342C31.6512 13.342 31.7539 13.3793 31.8285 13.454C31.9032 13.5287 31.9405 13.6313 31.9405 13.762V20.58C31.9405 20.7013 31.9032 20.804 31.8285 20.888C31.7539 20.9627 31.6512 21 31.5205 21ZM36.6025 21C36.4812 21 36.3785 20.9627 36.2945 20.888C36.2199 20.804 36.1825 20.7013 36.1825 20.58V16.534C36.1825 15.8153 35.9912 15.2273 35.6085 14.77C35.2352 14.3127 34.7452 14.084 34.1385 14.084C33.4945 14.084 32.9672 14.2893 32.5565 14.7C32.1459 15.1107 31.9405 15.6427 31.9405 16.296H31.2405C31.2685 15.6987 31.4085 15.1713 31.6605 14.714C31.9219 14.2567 32.2672 13.8973 32.6965 13.636C33.1259 13.3747 33.6065 13.244 34.1385 13.244C34.7079 13.244 35.2072 13.384 35.6365 13.664C36.0659 13.944 36.4019 14.3313 36.6445 14.826C36.8965 15.3207 37.0225 15.89 37.0225 16.534V20.58C37.0225 20.7013 36.9852 20.804 36.9105 20.888C36.8359 20.9627 36.7332 21 36.6025 21ZM49.2043 21.084C48.4576 21.084 47.7856 20.916 47.1883 20.58C46.6003 20.2347 46.1336 19.768 45.7883 19.18C45.4523 18.5827 45.2843 17.9153 45.2843 17.178C45.2843 16.4313 45.4523 15.764 45.7883 15.176C46.1336 14.5787 46.6003 14.112 47.1883 13.776C47.7856 13.4307 48.4576 13.258 49.2043 13.258C49.951 13.258 50.6183 13.4307 51.2063 13.776C51.7943 14.112 52.2563 14.5787 52.5923 15.176C52.9376 15.764 53.1103 16.4313 53.1103 17.178C53.1103 17.9153 52.9376 18.5827 52.5923 19.18C52.2563 19.768 51.7943 20.2347 51.2063 20.58C50.6183 20.916 49.951 21.084 49.2043 21.084ZM49.2043 20.3C49.7923 20.3 50.315 20.1647 50.7723 19.894C51.239 19.614 51.603 19.2407 51.8643 18.774C52.135 18.298 52.2703 17.7613 52.2703 17.164C52.2703 16.576 52.135 16.0487 51.8643 15.582C51.603 15.106 51.239 14.7327 50.7723 14.462C50.315 14.182 49.7923 14.042 49.2043 14.042C48.6256 14.042 48.103 14.182 47.6363 14.462C47.1696 14.7327 46.801 15.106 46.5303 15.582C46.2596 16.0487 46.1243 16.5807 46.1243 17.178C46.1243 17.766 46.2596 18.298 46.5303 18.774C46.801 19.2407 47.1696 19.614 47.6363 19.894C48.103 20.1647 48.6256 20.3 49.2043 20.3ZM63.0882 21C62.9669 21 62.8642 20.9627 62.7802 20.888C62.7056 20.804 62.6682 20.7013 62.6682 20.58V16.814C62.6682 16.198 62.5469 15.6893 62.3042 15.288C62.0709 14.8867 61.7489 14.588 61.3382 14.392C60.9369 14.1867 60.4796 14.084 59.9662 14.084C59.4622 14.084 59.0096 14.182 58.6082 14.378C58.2069 14.5647 57.8896 14.826 57.6562 15.162C57.4229 15.498 57.3062 15.876 57.3062 16.296H56.6062C56.6436 15.7173 56.8162 15.1993 57.1242 14.742C57.4322 14.2753 57.8336 13.9113 58.3282 13.65C58.8229 13.3793 59.3689 13.244 59.9662 13.244C60.6382 13.244 61.2402 13.384 61.7722 13.664C62.3136 13.9347 62.7382 14.336 63.0462 14.868C63.3542 15.3907 63.5082 16.0393 63.5082 16.814V20.58C63.5082 20.7013 63.4662 20.804 63.3822 20.888C63.3076 20.9627 63.2096 21 63.0882 21ZM56.8862 21C56.7649 21 56.6622 20.9627 56.5782 20.888C56.5036 20.804 56.4662 20.7013 56.4662 20.58V13.762C56.4662 13.6313 56.5036 13.5287 56.5782 13.454C56.6622 13.3793 56.7649 13.342 56.8862 13.342C57.0169 13.342 57.1196 13.3793 57.1942 13.454C57.2689 13.5287 57.3062 13.6313 57.3062 13.762V20.58C57.3062 20.7013 57.2689 20.804 57.1942 20.888C57.1196 20.9627 57.0169 21 56.8862 21ZM68.4202 24.318C68.3642 24.318 68.2988 24.304 68.2242 24.276C67.9722 24.1733 67.9022 24.0007 68.0142 23.758L72.7182 13.566C72.8302 13.3327 73.0028 13.2627 73.2362 13.356C73.4882 13.4587 73.5582 13.6313 73.4462 13.874L68.7422 24.066C68.6582 24.234 68.5508 24.318 68.4202 24.318ZM69.9042 20.818C69.7828 20.874 69.6755 20.888 69.5822 20.86C69.4888 20.832 69.4142 20.7573 69.3582 20.636L66.2922 13.916C66.2362 13.7947 66.2222 13.6873 66.2502 13.594C66.2782 13.5007 66.3528 13.426 66.4742 13.37C66.5955 13.314 66.7028 13.3 66.7962 13.328C66.8895 13.356 66.9642 13.4307 67.0202 13.552L70.0862 20.272C70.1422 20.3933 70.1562 20.5007 70.1282 20.594C70.1002 20.6873 70.0255 20.762 69.9042 20.818ZM4.864 37.084C4.37867 37.084 3.87 36.9953 3.338 36.818C2.806 36.6407 2.36267 36.342 2.008 35.922C1.93333 35.8287 1.90067 35.7307 1.91 35.628C1.92867 35.516 1.98933 35.4227 2.092 35.348C2.18533 35.2827 2.28333 35.2593 2.386 35.278C2.498 35.2967 2.58667 35.348 2.652 35.432C2.92267 35.7493 3.24933 35.9733 3.632 36.104C4.024 36.2253 4.44867 36.286 4.906 36.286C5.69 36.286 6.24533 36.146 6.572 35.866C6.89867 35.586 7.062 35.2593 7.062 34.886C7.062 34.522 6.88467 34.2233 6.53 33.99C6.18467 33.7473 5.648 33.5747 4.92 33.472C3.98667 33.3413 3.296 33.0893 2.848 32.716C2.4 32.3427 2.176 31.9087 2.176 31.414C2.176 30.9473 2.29267 30.5553 2.526 30.238C2.75933 29.9113 3.07667 29.6687 3.478 29.51C3.88867 29.342 4.35533 29.258 4.878 29.258C5.51267 29.258 6.04933 29.3747 6.488 29.608C6.92667 29.832 7.28133 30.1353 7.552 30.518C7.62667 30.6113 7.65 30.714 7.622 30.826C7.60333 30.9287 7.53333 31.0127 7.412 31.078C7.31867 31.1247 7.22067 31.1387 7.118 31.12C7.01533 31.1013 6.92667 31.0453 6.852 30.952C6.61867 30.6533 6.334 30.4293 5.998 30.28C5.67133 30.1213 5.28867 30.042 4.85 30.042C4.262 30.042 3.80467 30.168 3.478 30.42C3.15133 30.672 2.988 30.9753 2.988 31.33C2.988 31.5727 3.05333 31.7873 3.184 31.974C3.324 32.1513 3.548 32.3053 3.856 32.436C4.164 32.5573 4.57467 32.6553 5.088 32.73C5.788 32.8233 6.33867 32.982 6.74 33.206C7.15067 33.43 7.44 33.6913 7.608 33.99C7.78533 34.2793 7.874 34.592 7.874 34.928C7.874 35.3667 7.734 35.7493 7.454 36.076C7.174 36.4027 6.80533 36.6547 6.348 36.832C5.89067 37 5.396 37.084 4.864 37.084ZM11.4459 40.276C11.3245 40.276 11.2219 40.234 11.1379 40.15C11.0632 40.0753 11.0259 39.9773 11.0259 39.856V33.094C11.0445 32.3567 11.2219 31.7033 11.5579 31.134C11.9032 30.5553 12.3699 30.098 12.9579 29.762C13.5459 29.426 14.2039 29.258 14.9319 29.258C15.6785 29.258 16.3459 29.4307 16.9339 29.776C17.5312 30.112 17.9979 30.5787 18.3339 31.176C18.6792 31.764 18.8519 32.4313 18.8519 33.178C18.8519 33.9153 18.6792 34.5827 18.3339 35.18C17.9979 35.768 17.5312 36.2347 16.9339 36.58C16.3459 36.916 15.6785 37.084 14.9319 37.084C14.2599 37.084 13.6532 36.9393 13.1119 36.65C12.5799 36.3607 12.1645 35.9733 11.8659 35.488V39.856C11.8659 39.9773 11.8285 40.0753 11.7539 40.15C11.6792 40.234 11.5765 40.276 11.4459 40.276ZM14.9319 36.3C15.5199 36.3 16.0425 36.1647 16.4999 35.894C16.9665 35.614 17.3352 35.2407 17.6059 34.774C17.8765 34.298 18.0119 33.766 18.0119 33.178C18.0119 32.5807 17.8765 32.0487 17.6059 31.582C17.3352 31.106 16.9665 30.7327 16.4999 30.462C16.0425 30.182 15.5199 30.042 14.9319 30.042C14.3532 30.042 13.8305 30.182 13.3639 30.462C12.8972 30.7327 12.5285 31.106 12.2579 31.582C11.9965 32.0487 11.8659 32.5807 11.8659 33.178C11.8659 33.766 11.9965 34.298 12.2579 34.774C12.5285 35.2407 12.8972 35.614 13.3639 35.894C13.8305 36.1647 14.3532 36.3 14.9319 36.3ZM22.6316 33.64C22.5103 33.64 22.4076 33.6027 22.3236 33.528C22.249 33.444 22.2116 33.3413 22.2116 33.22V26.486C22.2116 26.3553 22.249 26.2527 22.3236 26.178C22.4076 26.1033 22.5103 26.066 22.6316 26.066C22.7623 26.066 22.865 26.1033 22.9396 26.178C23.0143 26.2527 23.0516 26.3553 23.0516 26.486V33.22C23.0516 33.3413 23.0143 33.444 22.9396 33.528C22.865 33.6027 22.7623 33.64 22.6316 33.64ZM28.8336 37C28.7123 37 28.6096 36.9627 28.5256 36.888C28.451 36.804 28.4136 36.7013 28.4136 36.58V32.814C28.4136 32.198 28.2923 31.6893 28.0496 31.288C27.8163 30.8867 27.4943 30.588 27.0836 30.392C26.6823 30.1867 26.225 30.084 25.7116 30.084C25.2076 30.084 24.755 30.182 24.3536 30.378C23.9523 30.5647 23.635 30.826 23.4016 31.162C23.1683 31.498 23.0516 31.876 23.0516 32.296H22.3516C22.389 31.7173 22.5616 31.1993 22.8696 30.742C23.1776 30.2753 23.579 29.9113 24.0736 29.65C24.5683 29.3793 25.1143 29.244 25.7116 29.244C26.3836 29.244 26.9856 29.384 27.5176 29.664C28.059 29.9347 28.4836 30.336 28.7916 30.868C29.0996 31.3907 29.2536 32.0393 29.2536 32.814V36.58C29.2536 36.7013 29.2116 36.804 29.1276 36.888C29.053 36.9627 28.955 37 28.8336 37ZM22.6316 37C22.5103 37 22.4076 36.9627 22.3236 36.888C22.249 36.804 22.2116 36.7013 22.2116 36.58V29.762C22.2116 29.6313 22.249 29.5287 22.3236 29.454C22.4076 29.3793 22.5103 29.342 22.6316 29.342C22.7623 29.342 22.865 29.3793 22.9396 29.454C23.0143 29.5287 23.0516 29.6313 23.0516 29.762V36.58C23.0516 36.7013 23.0143 36.804 22.9396 36.888C22.865 36.9627 22.7623 37 22.6316 37ZM36.2796 37.07C35.5422 37.07 34.8842 36.9067 34.3056 36.58C33.7362 36.244 33.2882 35.782 32.9616 35.194C32.6349 34.606 32.4716 33.934 32.4716 33.178C32.4716 32.4127 32.6256 31.7407 32.9336 31.162C33.2416 30.574 33.6662 30.112 34.2076 29.776C34.7489 29.44 35.3696 29.272 36.0696 29.272C36.7602 29.272 37.3716 29.4353 37.9036 29.762C38.4356 30.0793 38.8509 30.5227 39.1496 31.092C39.4482 31.652 39.5976 32.3007 39.5976 33.038C39.5976 33.1593 39.5602 33.2573 39.4856 33.332C39.4109 33.3973 39.3129 33.43 39.1916 33.43H33.0316V32.702H39.4156L38.7996 33.164C38.8182 32.5573 38.7156 32.0207 38.4916 31.554C38.2676 31.0873 37.9456 30.7233 37.5256 30.462C37.1149 30.1913 36.6296 30.056 36.0696 30.056C35.5376 30.056 35.0616 30.1913 34.6416 30.462C34.2309 30.7233 33.9042 31.0873 33.6616 31.554C33.4282 32.0207 33.3116 32.562 33.3116 33.178C33.3116 33.7847 33.4376 34.3213 33.6896 34.788C33.9416 35.2547 34.2916 35.6233 34.7396 35.894C35.1876 36.1553 35.7009 36.286 36.2796 36.286C36.6436 36.286 37.0076 36.2253 37.3716 36.104C37.7449 35.9733 38.0389 35.8053 38.2536 35.6C38.3282 35.5253 38.4169 35.488 38.5196 35.488C38.6316 35.4787 38.7249 35.5067 38.7996 35.572C38.9022 35.656 38.9536 35.7493 38.9536 35.852C38.9629 35.9547 38.9209 36.048 38.8276 36.132C38.5289 36.4027 38.1369 36.6267 37.6516 36.804C37.1756 36.9813 36.7182 37.07 36.2796 37.07ZM42.9628 32.324C43.0188 31.7267 43.1821 31.1993 43.4528 30.742C43.7235 30.2753 44.0735 29.9113 44.5028 29.65C44.9321 29.3887 45.4081 29.258 45.9308 29.258C46.2855 29.258 46.5608 29.3 46.7568 29.384C46.9528 29.468 47.0275 29.6173 46.9808 29.832C46.9528 29.972 46.8875 30.056 46.7848 30.084C46.6821 30.112 46.5561 30.1167 46.4068 30.098C46.2668 30.07 46.1081 30.056 45.9308 30.056C45.4641 30.056 45.0488 30.154 44.6848 30.35C44.3208 30.546 44.0361 30.8167 43.8308 31.162C43.6255 31.498 43.5228 31.8853 43.5228 32.324H42.9628ZM43.1028 37C42.9815 37 42.8788 36.9627 42.7948 36.888C42.7201 36.804 42.6828 36.7013 42.6828 36.58V29.762C42.6828 29.6313 42.7201 29.5287 42.7948 29.454C42.8788 29.3793 42.9815 29.342 43.1028 29.342C43.2335 29.342 43.3361 29.3793 43.4108 29.454C43.4855 29.5287 43.5228 29.6313 43.5228 29.762V36.58C43.5228 36.7013 43.4855 36.804 43.4108 36.888C43.3361 36.9627 43.2335 37 43.1028 37ZM52.9089 37.07C52.1716 37.07 51.5136 36.9067 50.9349 36.58C50.3656 36.244 49.9176 35.782 49.5909 35.194C49.2643 34.606 49.1009 33.934 49.1009 33.178C49.1009 32.4127 49.2549 31.7407 49.5629 31.162C49.8709 30.574 50.2956 30.112 50.8369 29.776C51.3783 29.44 51.9989 29.272 52.6989 29.272C53.3896 29.272 54.0009 29.4353 54.5329 29.762C55.0649 30.0793 55.4803 30.5227 55.7789 31.092C56.0776 31.652 56.2269 32.3007 56.2269 33.038C56.2269 33.1593 56.1896 33.2573 56.1149 33.332C56.0403 33.3973 55.9423 33.43 55.8209 33.43H49.6609V32.702H56.0449L55.4289 33.164C55.4476 32.5573 55.3449 32.0207 55.1209 31.554C54.8969 31.0873 54.5749 30.7233 54.1549 30.462C53.7443 30.1913 53.2589 30.056 52.6989 30.056C52.1669 30.056 51.6909 30.1913 51.2709 30.462C50.8603 30.7233 50.5336 31.0873 50.2909 31.554C50.0576 32.0207 49.9409 32.562 49.9409 33.178C49.9409 33.7847 50.0669 34.3213 50.3189 34.788C50.5709 35.2547 50.9209 35.6233 51.3689 35.894C51.8169 36.1553 52.3303 36.286 52.9089 36.286C53.2729 36.286 53.6369 36.2253 54.0009 36.104C54.3743 35.9733 54.6683 35.8053 54.8829 35.6C54.9576 35.5253 55.0463 35.488 55.1489 35.488C55.2609 35.4787 55.3543 35.5067 55.4289 35.572C55.5316 35.656 55.5829 35.7493 55.5829 35.852C55.5923 35.9547 55.5503 36.048 55.4569 36.132C55.1583 36.4027 54.7663 36.6267 54.2809 36.804C53.8049 36.9813 53.3476 37.07 52.9089 37.07Z" fill="#FFF8F4"/>
</g>
<circle cx="77.5" cy="19.5" r="1.5" fill="#FFF8F4"/>
<defs>
<filter id="filter0_d_1327_1542" x="0.595996" y="10.066" width="74.3183" height="33.51" filterUnits="userSpaceOnUse" color-interpolation-filters="sRGB">
<feFlood flood-opacity="0" result="BackgroundImageFix"/>
<feColorMatrix in="SourceAlpha" type="matrix" values="0 0 0 0 0 0 0 0 0 0 0 0 0 0 0 0 0 0 127 0" result="hardAlpha"/>
<feOffset dy="2"/>
<feGaussianBlur stdDeviation="0.65"/>
<feComposite in2="hardAlpha" operator="out"/>
<feColorMatrix type="matrix" values="0 0 0 0 0 0 0 0 0 0 0 0 0 0 0 0 0 0 0.2 0"/>
<feBlend mode="normal" in2="BackgroundImageFix" result="effect1_dropShadow_1327_1542"/>
<feBlend mode="normal" in="SourceGraphic" in2="effect1_dropShadow_1327_1542" result="shape"/>
</filter>
</defs>
</svg>
