<svg width="42" height="42" viewBox="0 0 61 61" fill="none" xmlns="http://www.w3.org/2000/svg">
<path d="M13.8492 5.54504C19.7209 1.62724 26.786 -0.094643 33.8019 0.682259C40.8177 1.45916 47.335 4.68509 52.2072 9.79262C57.0795 14.9002 59.9948 21.5622 60.4402 28.6068C60.8857 35.6515 58.8328 42.6277 54.6426 48.3082C50.4525 53.9888 44.3935 58.0099 37.5314 59.6644C30.6693 61.3188 23.4435 60.5005 17.1251 57.3535C10.8067 54.2065 5.80032 48.9324 2.98654 42.4587C0.172769 35.985 -0.268172 28.7264 1.74128 21.9597" stroke="black"/>
<path d="M24.643 26.5V15.604H26.243V26.5H24.643ZM17.795 26.5V15.604H19.395V26.5H17.795ZM18.851 21.924V20.42H25.123V21.924H18.851ZM36.0031 26.5V15.604H40.0031C40.7498 15.604 41.4005 15.764 41.9551 16.084C42.5205 16.3933 42.9578 16.8147 43.2671 17.348C43.5765 17.8813 43.7311 18.4787 43.7311 19.14C43.7311 19.8013 43.5765 20.3987 43.2671 20.932C42.9578 21.4653 42.5205 21.8867 41.9551 22.196C41.4005 22.5053 40.7498 22.66 40.0031 22.66H37.3151V21.156H39.7311C40.4351 21.156 41.0005 20.98 41.4271 20.628C41.8538 20.2653 42.0671 19.7693 42.0671 19.14C42.0671 18.468 41.8538 17.9613 41.4271 17.62C41.0005 17.2787 40.4351 17.108 39.7311 17.108H37.2991L37.6031 16.74V26.5H36.0031ZM42.0831 26.5L39.5391 21.972H41.2991L43.8431 26.5H42.0831ZM14.6282 45.5L16.6282 34.604H18.0522L21.0442 42.556H21.0922L24.0842 34.604H25.5082L27.5082 45.5H25.8282L24.9482 40.316C24.8202 39.5693 24.7135 38.8333 24.6282 38.108C24.5429 37.372 24.4895 36.636 24.4682 35.9H24.8682C24.6762 36.7853 24.4735 37.564 24.2602 38.236C24.0575 38.908 23.8229 39.6013 23.5562 40.316L21.6842 45.324H20.4522L18.5802 40.316C18.3135 39.5907 18.0735 38.8973 17.8602 38.236C17.6575 37.564 17.4602 36.7853 17.2682 35.9H17.6682C17.6469 36.636 17.5935 37.372 17.5082 38.108C17.4229 38.8333 17.3162 39.5693 17.1882 40.316L16.3082 45.5H14.6282ZM44.2237 45.5L37.1837 36.364L38.0797 36.108V45.5H36.4797V34.604H37.8397L44.6397 43.42H43.9837V34.604H45.5837V45.5H44.2237Z" fill="black"/>
<circle cx="7" cy="12" r="3" fill="#FF4343"/>
</svg>
