<svg width="57" height="41" viewBox="0 0 57 41" fill="none" xmlns="http://www.w3.org/2000/svg">
<g filter="url(#filter0_d_1246_1452)">
<rect y="39" width="39" height="54" rx="3" transform="rotate(-90 0 39)" fill="#FFFCFA"/>
<rect x="0.5" y="38.5" width="38" height="53" rx="2.5" transform="rotate(-90 0.5 38.5)" stroke="#0D0A08"/>
</g>
<mask id="path-3-inside-1_1246_1452" fill="white">
<path d="M4 39C1.79086 39 0 37.2091 0 35L0 4C0 1.79086 1.79086 0 4 0H50C52.2091 0 54 1.79086 54 4V35C54 37.2091 52.2091 39 50 39H4Z"/>
</mask>
<path d="M4 39C0.410149 39 -2.5 36.0899 -2.5 32.5L-2.5 4C-2.5 0.410149 0.410149 -2.5 4 -2.5V2.5C3.17157 2.5 2.5 3.17157 2.5 4L2.5 35C2.5 37.2091 3.17157 39 4 39ZM54 0V39V0ZM54 39H0H54ZM-2.5 4C-2.5 0.410149 0.410149 -2.5 4 -2.5H47.5C51.0899 -2.5 54 0.410149 54 4C54 3.17157 52.2091 2.5 50 2.5H4C3.17157 2.5 2.5 3.17157 2.5 4H-2.5Z" fill="#0D0A08" fill-opacity="0.14" mask="url(#path-3-inside-1_1246_1452)"/>
<rect x="8" y="9" width="2" height="21" rx="1" fill="#0D0A08"/>
<rect x="17" y="9" width="2" height="21" rx="1" fill="#0D0A08"/>
<rect x="26" y="9" width="2" height="21" rx="1" fill="#0D0A08"/>
<circle cx="18" cy="14" r="1.75" fill="#FFFCFA" stroke="#0D0A08" stroke-width="0.5"/>
<circle cx="27" cy="25" r="1.75" fill="#FFFCFA" stroke="#0D0A08" stroke-width="0.5"/>
<circle cx="9" cy="20" r="1.75" fill="#FFFCFA" stroke="#0D0A08" stroke-width="0.5"/>
<circle cx="41.5" cy="19.5" r="7.5" fill="#FF4343"/>
<circle cx="46.1045" cy="18" r="1.5" fill="#FFFCFA"/>
<defs>
<filter id="filter0_d_1246_1452" x="0" y="0" width="57" height="41" filterUnits="userSpaceOnUse" color-interpolation-filters="sRGB">
<feFlood flood-opacity="0" result="BackgroundImageFix"/>
<feColorMatrix in="SourceAlpha" type="matrix" values="0 0 0 0 0 0 0 0 0 0 0 0 0 0 0 0 0 0 127 0" result="hardAlpha"/>
<feOffset dx="3" dy="2"/>
<feComposite in2="hardAlpha" operator="out"/>
<feColorMatrix type="matrix" values="0 0 0 0 0.0509804 0 0 0 0 0.0392157 0 0 0 0 0.0313726 0 0 0 0.14 0"/>
<feBlend mode="normal" in2="BackgroundImageFix" result="effect1_dropShadow_1246_1452"/>
<feBlend mode="normal" in="SourceGraphic" in2="effect1_dropShadow_1246_1452" result="shape"/>
</filter>
</defs>
</svg>
