<svg width="26" height="33" viewBox="0 0 26 33" fill="none" xmlns="http://www.w3.org/2000/svg">
<g filter="url(#filter0_d_1204_148)">
<path d="M8.1056 15.5885C8.12063 15.2983 8.49826 15.1968 8.6567 15.4405L11.2032 19.3563C11.2741 19.4653 11.407 19.5162 11.5326 19.4825L16.0437 18.2707C16.3244 18.1953 16.5375 18.5231 16.3548 18.7491L13.4175 22.381C13.3358 22.4821 13.3284 22.6243 13.3993 22.7332L15.9458 26.6491C16.1042 26.8928 15.8583 27.1968 15.587 27.0928L11.2251 25.4216C11.1037 25.3751 10.9662 25.4121 10.8845 25.5131L7.94717 29.1451C7.76442 29.371 7.39929 29.2311 7.41431 28.9409L7.65582 24.2761C7.66254 24.1463 7.58492 24.0269 7.46356 23.9804L3.10167 22.3092C2.83029 22.2053 2.85051 21.8148 3.13118 21.7394L7.64232 20.5275C7.76784 20.4938 7.85737 20.3831 7.86409 20.2533L8.1056 15.5885Z" fill="#FFE710"/>
<path d="M8.86628 15.3042C8.57582 14.8575 7.88348 15.0435 7.85594 15.5756L7.61443 20.2404C7.61331 20.262 7.59838 20.2805 7.57746 20.2861L3.06632 21.4979C2.55177 21.6362 2.5147 22.3521 3.01223 22.5427L7.37411 24.2139C7.39434 24.2216 7.40728 24.2415 7.40616 24.2632L7.16465 28.928C7.1371 29.4601 7.80652 29.7166 8.14156 29.3023L11.0789 25.6703C11.0925 25.6535 11.1154 25.6473 11.1356 25.6551L15.4975 27.3263C15.995 27.5169 16.4458 26.9595 16.1554 26.5128L13.6088 22.597C13.597 22.5788 13.5983 22.5551 13.6119 22.5383L16.5492 18.9063C16.8842 18.492 16.4934 17.891 15.9788 18.0293L11.4677 19.2411C11.4468 19.2467 11.4246 19.2382 11.4128 19.2201L8.86628 15.3042Z" stroke="#534439" stroke-width="0.5"/>
</g>
<mask id="mask0_1204_148" style="mask-type:alpha" maskUnits="userSpaceOnUse" x="0" y="12" width="18" height="20">
<path d="M8.87159 13.0602L0.188504 15.7518L4.3394 31.204L17.3293 27.7537L12.356 27.9917L7.42682 29.9669L11.0863 12.1728L8.87159 13.0602Z" fill="#D9D9D9"/>
</mask>
<g mask="url(#mask0_1204_148)">
<path d="M8.1056 15.5885C8.12063 15.2983 8.49826 15.1969 8.6567 15.4405L11.2032 19.3564C11.2741 19.4653 11.407 19.5163 11.5326 19.4826L16.0437 18.2707C16.3244 18.1953 16.5375 18.5231 16.3548 18.7491L13.4175 22.3811C13.3358 22.4821 13.3284 22.6243 13.3993 22.7333L15.9458 26.6492C16.1042 26.8928 15.8583 27.1968 15.587 27.0928L11.2251 25.4216C11.1037 25.3751 10.9662 25.4121 10.8845 25.5131L7.94717 29.1451C7.76442 29.3711 7.39929 29.2312 7.41431 28.9409L7.65582 24.2761C7.66254 24.1463 7.58492 24.027 7.46356 23.9805L3.10167 22.3093C2.83029 22.2053 2.85051 21.8148 3.13118 21.7394L7.64232 20.5276C7.76784 20.4939 7.85737 20.3832 7.86409 20.2534L8.1056 15.5885Z" fill="#FFF5DB"/>
</g>
<g filter="url(#filter1_d_1204_148)">
<path d="M18.9966 5.77797C19.1186 5.51421 19.5068 5.56068 19.5631 5.84579L20.1867 9.00278C20.2119 9.13028 20.3164 9.22707 20.4454 9.24252L23.6406 9.625C23.9291 9.65954 24.0049 10.0432 23.7512 10.1848L20.9414 11.7535C20.8279 11.8168 20.7681 11.946 20.7933 12.0735L21.4169 15.2305C21.4732 15.5156 21.1318 15.7062 20.9187 15.5087L18.5585 13.3212C18.4632 13.2328 18.3218 13.2159 18.2084 13.2793L15.3986 14.8479C15.1448 14.9896 14.8581 14.7237 14.9801 14.46L16.3312 11.5394C16.3858 11.4214 16.3582 11.2818 16.2629 11.1934L13.9027 9.00589C13.6896 8.80834 13.8538 8.45345 14.1423 8.48799L17.3375 8.87048C17.4665 8.88593 17.5909 8.81652 17.6454 8.69856L18.9966 5.77797Z" fill="#FFE710"/>
<path d="M19.8084 5.79734C19.7052 5.27465 18.9934 5.18944 18.7697 5.673L17.4185 8.5936C17.4094 8.61326 17.3887 8.62482 17.3672 8.62225L14.172 8.23976C13.643 8.17644 13.342 8.82706 13.7328 9.18925L16.0929 11.3768C16.1088 11.3915 16.1134 11.4148 16.1043 11.4344L14.7532 14.355C14.5295 14.8386 15.0552 15.3259 15.5205 15.0662L18.3302 13.4975C18.3491 13.487 18.3727 13.4898 18.3886 13.5045L20.7487 15.692C21.1395 16.0542 21.7654 15.7048 21.6622 15.1821L21.0386 12.0251C21.0344 12.0038 21.0443 11.9823 21.0633 11.9717L23.873 10.4031C24.3382 10.1434 24.1993 9.4401 23.6703 9.37677L20.4751 8.99429C20.4536 8.99171 20.4362 8.97558 20.432 8.95433L19.8084 5.79734Z" stroke="#534439" stroke-width="0.5"/>
</g>
<mask id="mask1_1204_148" style="mask-type:alpha" maskUnits="userSpaceOnUse" x="12" y="3" width="11" height="14">
<path d="M20.3324 4.02246L13.5367 3.47093L12.1104 15.3859L22.1158 16.6122L18.5876 15.3888L14.6049 15.387L22.1218 4.02329L20.3324 4.02246Z" fill="#D9D9D9"/>
</mask>
<g mask="url(#mask1_1204_148)">
<path d="M18.9961 5.77787C19.1181 5.51411 19.5063 5.56059 19.5627 5.8457L20.1863 9.00269C20.2114 9.13019 20.3159 9.22698 20.4449 9.24242L23.6401 9.62491C23.9286 9.65945 24.0044 10.0431 23.7507 10.1847L20.9409 11.7534C20.8274 11.8167 20.7676 11.9459 20.7928 12.0734L21.4164 15.2304C21.4727 15.5155 21.1313 15.7061 20.9182 15.5086L18.558 13.3211C18.4627 13.2327 18.3214 13.2158 18.2079 13.2792L15.3981 14.8478C15.1444 14.9895 14.8576 14.7237 14.9796 14.4599L16.3307 11.5393C16.3853 11.4213 16.3577 11.2817 16.2624 11.1933L13.9022 9.0058C13.6891 8.80825 13.8533 8.45336 14.1418 8.4879L17.337 8.87039C17.4661 8.88583 17.5904 8.81643 17.6449 8.69847L18.9961 5.77787Z" fill="#FFF5DB"/>
</g>
<g filter="url(#filter2_d_1204_148)">
<path d="M4.57366 3.79453C4.52704 3.50768 4.87472 3.32875 5.08105 3.53341L6.59198 5.03214C6.68425 5.12367 6.82497 5.14537 6.94053 5.0859L8.83282 4.11205C9.09122 3.97906 9.36883 4.25443 9.23795 4.51391L8.27947 6.41402C8.22094 6.53007 8.24378 6.6706 8.33605 6.76213L9.84699 8.26086C10.0533 8.46552 9.87721 8.81464 9.58999 8.77034L7.48669 8.44595C7.35824 8.42614 7.23164 8.49129 7.17311 8.60733L6.21463 10.5075C6.08374 10.7669 5.69729 10.7073 5.65066 10.4205L5.30923 8.31986C5.28837 8.19158 5.18729 8.09131 5.05884 8.0715L2.95554 7.74711C2.66832 7.70281 2.60558 7.31685 2.86398 7.18387L4.75627 6.21001C4.87183 6.15054 4.93595 6.02342 4.9151 5.89514L4.57366 3.79453Z" fill="#FFE710"/>
<path d="M5.25711 3.35592C4.87883 2.9807 4.24142 3.30875 4.3269 3.83464L4.66834 5.93524C4.67182 5.95663 4.66113 5.97781 4.64187 5.98772L2.74958 6.96158C2.27584 7.20538 2.39086 7.91297 2.91743 7.99419L5.02073 8.31858C5.04214 8.32188 5.05899 8.33859 5.06246 8.35997L5.4039 10.4606C5.48938 10.9865 6.19788 11.0957 6.43784 10.62L7.39632 8.71993C7.40607 8.70059 7.42717 8.68973 7.44858 8.69303L9.55188 9.01742C10.0785 9.09864 10.4013 8.45858 10.023 8.08337L8.51211 6.58464C8.49673 6.56938 8.49293 6.54596 8.50268 6.52662L9.46116 4.6265C9.70112 4.1508 9.19216 3.64595 8.71842 3.88976L6.82613 4.86361C6.80687 4.87352 6.78342 4.8699 6.76804 4.85465L5.25711 3.35592Z" stroke="#534439" stroke-width="0.5"/>
</g>
<mask id="mask2_1204_148" style="mask-type:alpha" maskUnits="userSpaceOnUse" x="0" y="1" width="12" height="12">
<path d="M4.62881 1.91497L0.174659 4.42666L4.29305 12.4291L11.025 8.98849L8.31889 9.71033L5.84352 11.382L5.74102 1.16387L4.62881 1.91497Z" fill="#D9D9D9"/>
</mask>
<g mask="url(#mask2_1204_148)">
<path d="M4.57269 3.79477C4.52606 3.50792 4.87374 3.32899 5.08007 3.53365L6.591 5.03238C6.68328 5.12391 6.82399 5.14562 6.93956 5.08614L8.83184 4.11229C9.09024 3.97931 9.36786 4.25468 9.23697 4.51415L8.2785 6.41427C8.21996 6.53031 8.2428 6.67084 8.33508 6.76237L9.84601 8.2611C10.0523 8.46577 9.87624 8.81489 9.58901 8.77059L7.48571 8.44619C7.35726 8.42638 7.23066 8.49154 7.17213 8.60758L6.21365 10.5077C6.08277 10.7672 5.69631 10.7076 5.64969 10.4207L5.30825 8.32011C5.2874 8.19182 5.18631 8.09156 5.05786 8.07175L2.95456 7.74735C2.66734 7.70305 2.6046 7.3171 2.86301 7.18411L4.75529 6.21026C4.87085 6.15079 4.93498 6.02366 4.91413 5.89538L4.57269 3.79477Z" fill="#FFF5DB"/>
</g>
<defs>
<filter id="filter0_d_1204_148" x="2.00918" y="14.8029" width="15.3156" height="16.3555" filterUnits="userSpaceOnUse" color-interpolation-filters="sRGB">
<feFlood flood-opacity="0" result="BackgroundImageFix"/>
<feColorMatrix in="SourceAlpha" type="matrix" values="0 0 0 0 0 0 0 0 0 0 0 0 0 0 0 0 0 0 127 0" result="hardAlpha"/>
<feOffset dy="1"/>
<feGaussianBlur stdDeviation="0.2"/>
<feComposite in2="hardAlpha" operator="out"/>
<feColorMatrix type="matrix" values="0 0 0 0 0 0 0 0 0 0 0 0 0 0 0 0 0 0 0.25 0"/>
<feBlend mode="normal" in2="BackgroundImageFix" result="effect1_dropShadow_1204_148"/>
<feBlend mode="normal" in="SourceGraphic" in2="effect1_dropShadow_1204_148" result="shape"/>
</filter>
<filter id="filter1_d_1204_148" x="12.9042" y="5.10367" width="11.9016" height="12.388" filterUnits="userSpaceOnUse" color-interpolation-filters="sRGB">
<feFlood flood-opacity="0" result="BackgroundImageFix"/>
<feColorMatrix in="SourceAlpha" type="matrix" values="0 0 0 0 0 0 0 0 0 0 0 0 0 0 0 0 0 0 127 0" result="hardAlpha"/>
<feOffset dy="1"/>
<feGaussianBlur stdDeviation="0.2"/>
<feComposite in2="hardAlpha" operator="out"/>
<feColorMatrix type="matrix" values="0 0 0 0 0 0 0 0 0 0 0 0 0 0 0 0 0 0 0.25 0"/>
<feBlend mode="normal" in2="BackgroundImageFix" result="effect1_dropShadow_1204_148"/>
<feBlend mode="normal" in="SourceGraphic" in2="effect1_dropShadow_1204_148" result="shape"/>
</filter>
<filter id="filter2_d_1204_148" x="1.80068" y="2.94357" width="9.03779" height="9.62919" filterUnits="userSpaceOnUse" color-interpolation-filters="sRGB">
<feFlood flood-opacity="0" result="BackgroundImageFix"/>
<feColorMatrix in="SourceAlpha" type="matrix" values="0 0 0 0 0 0 0 0 0 0 0 0 0 0 0 0 0 0 127 0" result="hardAlpha"/>
<feOffset dy="1"/>
<feGaussianBlur stdDeviation="0.2"/>
<feComposite in2="hardAlpha" operator="out"/>
<feColorMatrix type="matrix" values="0 0 0 0 0 0 0 0 0 0 0 0 0 0 0 0 0 0 0.25 0"/>
<feBlend mode="normal" in2="BackgroundImageFix" result="effect1_dropShadow_1204_148"/>
<feBlend mode="normal" in="SourceGraphic" in2="effect1_dropShadow_1204_148" result="shape"/>
</filter>
</defs>
</svg>
