<svg width="1280" height="319" viewBox="0 0 1280 319" fill="none" xmlns="http://www.w3.org/2000/svg">
<path fill-rule="evenodd" clip-rule="evenodd" d="M0 0H30C61 0 122 0 183 42.3672C244 84.7344 305 145.378 366 145.378C427 145.378 488 84.7344 549 74.7656C610 63.9661 670 127.932 731 137.901C792 148.701 853 106.333 914 79.75C975 53.1667 1036 42.3672 1097 53.1667C1158 63.9661 1219 95.5339 1250 111.318L1280 127.932V319H1250C1219 319 1158 319 1097 319C1036 319 975 319 914 319C853 319 792 319 731 319C670 319 610 319 549 319C488 319 427 319 366 319C305 319 244 319 183 319C122 319 61 319 30 319H0V0Z" fill="#A597CC"/>
</svg>
