<svg width="2686" height="319" viewBox="0 0 2686 319" fill="none" xmlns="http://www.w3.org/2000/svg">
<path d="M1817 137.901C1750 137.901 1684.65 55.9307 1562.5 55.9307C1440.35 55.9307 1368 136.745 1280 127.985C1192 119.226 1178.5 68.5227 1097 50C1015.5 31.4773 975 50 914 76.5833C853 103.167 792 148.701 731 137.901C670 127.932 610 63.9661 549 74.7656C488 84.7344 427 145.378 366 145.378C305 145.378 244 84.7344 183 42.3672C122 0 61 0 30 0H0V319H1312.95H2686V127.917C2686 127.917 2686 117 2666 96C2646 75 2612.96 66.7311 2545.96 55.9307C2478.95 45.1304 2411.95 55.9307 2344.95 82.5162C2277.94 109.102 2275.5 148.701 2208.5 137.901C2141.5 127.932 2088.5 70.5 2016.5 70.5C1950.5 70.5 1884 137.901 1817 137.901Z" fill="#A597CC"/>
</svg>
