<svg width="59" height="44" viewBox="0 0 59 44" fill="none" xmlns="http://www.w3.org/2000/svg">
<rect x="34" y="2.16797" width="24.8889" height="35" rx="3" fill="#DDD9D8"/>
<rect x="31.5" y="0.667969" width="23.8889" height="34" rx="2.5" fill="#FFFCFA" stroke="#0D0A08"/>
<mask id="path-3-inside-1_1782_497" fill="white">
<path d="M31 4.16797C31 1.95883 32.7909 0.167969 35 0.167969H51.8889C54.098 0.167969 55.8889 1.95883 55.8889 4.16797V31.168C55.8889 33.3771 54.098 35.168 51.8889 35.168H35C32.7909 35.168 31 33.3771 31 31.168V4.16797Z"/>
</mask>
<path d="M28.5 4.16797C28.5 0.578118 31.4101 -2.33203 35 -2.33203H49.3889C52.9787 -2.33203 55.8889 0.578118 55.8889 4.16797C55.8889 3.33954 54.098 2.66797 51.8889 2.66797H35C34.1716 2.66797 33.5 3.33954 33.5 4.16797H28.5ZM55.8889 35.168H31H55.8889ZM35 35.168C31.4101 35.168 28.5 32.2578 28.5 28.668V4.16797C28.5 0.578118 31.4101 -2.33203 35 -2.33203V2.66797C34.1716 2.66797 33.5 3.33954 33.5 4.16797V31.168C33.5 33.3771 34.1716 35.168 35 35.168ZM55.8889 0.167969V35.168V0.167969Z" fill="#DDD9D8" mask="url(#path-3-inside-1_1782_497)"/>
<rect x="31.5" y="0.667969" width="23.8889" height="34" rx="2.5" stroke="#0D0A08"/>
<circle cx="43.4446" cy="8.50132" r="3.38889" stroke="#0D0A08"/>
<circle cx="43.4443" cy="23.2791" r="6.5" stroke="#0D0A08"/>
<circle cx="43.4444" cy="23.2791" r="2.61111" stroke="#0D0A08"/>
<rect x="13" y="41.168" width="19" height="2" fill="#0D0A08"/>
<rect x="0.5" y="10.668" width="44" height="27" rx="2.5" fill="#FFFCFA" stroke="#0D0A08"/>
<mask id="path-11-inside-2_1782_497" fill="white">
<path d="M0 14.168C0 11.9588 1.79086 10.168 4 10.168H41C43.2091 10.168 45 11.9588 45 14.168V34.168C45 36.3771 43.2091 38.168 41 38.168H4C1.79086 38.168 0 36.3771 0 34.168V14.168Z"/>
</mask>
<path d="M-2.5 14.168C-2.5 10.5781 0.410149 7.66797 4 7.66797H41C44.5899 7.66797 47.5 10.5781 47.5 14.168H42.5C42.5 13.3395 41.8284 12.668 41 12.668H4C3.17157 12.668 2.5 13.3395 2.5 14.168H-2.5ZM45 38.168H0H45ZM4 38.168C0.410149 38.168 -2.5 35.2578 -2.5 31.668V14.168C-2.5 10.5781 0.410149 7.66797 4 7.66797V12.668C3.17157 12.668 2.5 13.3395 2.5 14.168V34.168C2.5 36.3771 3.17157 38.168 4 38.168ZM41 7.66797C44.5899 7.66797 47.5 10.5781 47.5 14.168V31.668C47.5 35.2578 44.5899 38.168 41 38.168C41.8284 38.168 42.5 36.3771 42.5 34.168V14.168C42.5 13.3395 41.8284 12.668 41 12.668V7.66797Z" fill="#DDD9D8" mask="url(#path-11-inside-2_1782_497)"/>
<rect x="0.5" y="10.668" width="44" height="27" rx="2.5" stroke="#0D0A08"/>
<path d="M7 29.4871L10.8452 22.8471C11.0152 22.5536 11.4218 22.5109 11.6491 22.7627L15.2499 26.7528C15.5002 27.0302 15.9552 26.945 16.0883 26.5959L20.2172 15.7611C20.395 15.2946 21.0715 15.348 21.1738 15.8366L24.5259 31.8399C24.6368 32.3695 25.3928 32.37 25.5045 31.8406L27.3464 23.1094C27.4262 22.7308 27.8874 22.5825 28.173 22.8436L31.3981 25.792C31.5809 25.9591 31.8585 25.9672 32.0508 25.811L38 20.9765" stroke="#FF4343" stroke-linecap="round"/>
</svg>
