<svg width="59" height="44" viewBox="0 0 59 44" fill="none" xmlns="http://www.w3.org/2000/svg">
<g clip-path="url(#clip0_1919_526)">
<path d="M55.8889 2.16797H37C35.3431 2.16797 34 3.51111 34 5.16797V34.168C34 35.8248 35.3431 37.168 37 37.168H55.8889C57.5458 37.168 58.8889 35.8248 58.8889 34.168V5.16797C58.8889 3.51111 57.5458 2.16797 55.8889 2.16797Z" fill="#DDD9D8"/>
<path d="M52.8889 0.667969H34C32.6193 0.667969 31.5 1.78726 31.5 3.16797V32.168C31.5 33.5487 32.6193 34.668 34 34.668H52.8889C54.2696 34.668 55.3889 33.5487 55.3889 32.168V3.16797C55.3889 1.78726 54.2696 0.667969 52.8889 0.667969Z" fill="#FEFEFE" stroke="#0D0A08"/>
<mask id="mask0_1919_526" style="mask-type:luminance" maskUnits="userSpaceOnUse" x="31" y="0" width="25" height="36">
<path d="M31 4.16797C31 1.95883 32.7909 0.167969 35 0.167969H51.8889C54.098 0.167969 55.8889 1.95883 55.8889 4.16797V31.168C55.8889 33.3771 54.098 35.168 51.8889 35.168H35C32.7909 35.168 31 33.3771 31 31.168V4.16797Z" fill="white"/>
</mask>
<g mask="url(#mask0_1919_526)">
<path d="M28.5 4.16797C28.5 0.578117 31.4101 -2.33203 35 -2.33203H49.3889C52.9787 -2.33203 55.8889 0.578117 55.8889 4.16797C55.8889 3.33954 54.098 2.66797 51.8889 2.66797H35C34.1716 2.66797 33.5 3.33954 33.5 4.16797H28.5ZM35 35.168C31.4101 35.168 28.5 32.2578 28.5 28.668V4.16797C28.5 0.578117 31.4101 -2.33203 35 -2.33203V2.66797C34.1716 2.66797 33.5 3.33954 33.5 4.16797V31.168C33.5 33.3771 34.1716 35.168 35 35.168Z" fill="#DDD9D8"/>
</g>
<path d="M52.8889 0.667969H34C32.6193 0.667969 31.5 1.78726 31.5 3.16797V32.168C31.5 33.5487 32.6193 34.668 34 34.668H52.8889C54.2696 34.668 55.3889 33.5487 55.3889 32.168V3.16797C55.3889 1.78726 54.2696 0.667969 52.8889 0.667969Z" stroke="#0D0A08"/>
<path d="M43.4446 11.8902C45.3162 11.8902 46.8334 10.3729 46.8334 8.50132C46.8334 6.62968 45.3162 5.11243 43.4446 5.11243C41.5729 5.11243 40.0557 6.62968 40.0557 8.50132C40.0557 10.3729 41.5729 11.8902 43.4446 11.8902Z" stroke="#0D0A08"/>
<path d="M43.4443 29.7791C47.0342 29.7791 49.9443 26.869 49.9443 23.2791C49.9443 19.6893 47.0342 16.7791 43.4443 16.7791C39.8545 16.7791 36.9443 19.6893 36.9443 23.2791C36.9443 26.869 39.8545 29.7791 43.4443 29.7791Z" stroke="#0D0A08"/>
<path d="M43.4441 25.8902C44.8862 25.8902 46.0552 24.7212 46.0552 23.2791C46.0552 21.837 44.8862 20.668 43.4441 20.668C42.002 20.668 40.833 21.837 40.833 23.2791C40.833 24.7212 42.002 25.8902 43.4441 25.8902Z" stroke="#0D0A08"/>
<path d="M32 41.168H13V43.168H32V41.168Z" fill="#0D0A08"/>
<path d="M42 10.668H3C1.61929 10.668 0.5 11.7873 0.5 13.168V35.168C0.5 36.5487 1.61929 37.668 3 37.668H42C43.3807 37.668 44.5 36.5487 44.5 35.168V13.168C44.5 11.7873 43.3807 10.668 42 10.668Z" fill="#FEFEFE" stroke="#0D0A08"/>
<mask id="mask1_1919_526" style="mask-type:luminance" maskUnits="userSpaceOnUse" x="0" y="10" width="45" height="29">
<path d="M0 14.168C0 11.9588 1.79086 10.168 4 10.168H41C43.2091 10.168 45 11.9588 45 14.168V34.168C45 36.3771 43.2091 38.168 41 38.168H4C1.79086 38.168 0 36.3771 0 34.168V14.168Z" fill="white"/>
</mask>
<g mask="url(#mask1_1919_526)">
<path d="M-2.5 14.1681C-2.5 10.5782 0.410149 7.66803 4 7.66803H41C44.5899 7.66803 47.5 10.5782 47.5 14.1681H42.5C42.5 13.3396 41.8284 12.6681 41 12.6681H4C3.17157 12.6681 2.5 13.3396 2.5 14.1681H-2.5ZM4 38.1681C0.410149 38.1681 -2.5 35.2579 -2.5 31.6681V14.1681C-2.5 10.5782 0.410149 7.66803 4 7.66803V12.6681C3.17157 12.6681 2.5 13.3396 2.5 14.1681V34.1681C2.5 36.3772 3.17157 38.1681 4 38.1681ZM41 7.66803C44.5899 7.66803 47.5 10.5782 47.5 14.1681V31.6681C47.5 35.2579 44.5899 38.1681 41 38.1681C41.8284 38.1681 42.5 36.3772 42.5 34.1681V14.1681C42.5 13.3396 41.8284 12.6681 41 12.6681V7.66803Z" fill="#DDD9D8"/>
</g>
<path d="M42 10.668H3C1.61929 10.668 0.5 11.7873 0.5 13.168V35.168C0.5 36.5487 1.61929 37.668 3 37.668H42C43.3807 37.668 44.5 36.5487 44.5 35.168V13.168C44.5 11.7873 43.3807 10.668 42 10.668Z" stroke="#0D0A08"/>
<path d="M7 29.4871L10.8452 22.8471C11.0152 22.5536 11.4218 22.5109 11.6491 22.7627L15.2499 26.7528C15.5002 27.0302 15.9552 26.945 16.0883 26.5959L20.2172 15.7611C20.395 15.2946 21.0715 15.348 21.1738 15.8366L24.5259 31.8399C24.6368 32.3695 25.3928 32.37 25.5045 31.8406L27.3464 23.1094C27.4262 22.7308 27.8874 22.5825 28.173 22.8436L31.3981 25.792C31.5809 25.9591 31.8585 25.9672 32.0508 25.811L38 20.9765" stroke="#00AC86" stroke-linecap="round"/>
</g>
<defs>
<clipPath id="clip0_1919_526">
<rect width="59" height="44" fill="white"/>
</clipPath>
</defs>
</svg>
