<svg width="46" height="53" viewBox="0 0 46 53" fill="none" xmlns="http://www.w3.org/2000/svg">
<rect x="15.8467" y="7.82629" width="25.7915" height="29.9631" rx="2.5" transform="rotate(8.7595 15.8467 7.82629)" fill="#FFFCFA" stroke="#0D0A08"/>
<path d="M18.2473 26.5762C18.1686 21.6607 20.1309 14.7435 27.8086 15.9265C34.8992 17.019 34.8657 23.9214 33.3963 28.9105" stroke="#FF4343"/>
<rect x="17.71" y="25.7032" width="3.23083" height="5.70372" rx="1" transform="rotate(-2.12267 17.71 25.7032)" fill="#0D0A08"/>
<rect x="31.1375" y="27.1483" width="3.23083" height="5.70372" rx="1" transform="rotate(19.6395 31.1375 27.1483)" fill="#0D0A08"/>
<path d="M2.53575 9.19029C2.5098 9.81397 2.13961 14.6584 7.47392 14.1316C7.91435 14.0881 11.2603 13.3558 12.3228 11.5342C12.7813 10.7481 13.0813 9.72105 11.9092 7.18536C10.4368 3.99994 7.35866 6.19829 6.79282 1.97767C4.00956 3.63499 2.60158 7.60826 2.53575 9.19029Z" fill="#FF4343" stroke="#0D0A08" stroke-linecap="round"/>
<rect x="6.11557" y="14.8321" width="6.37491" height="26.4655" transform="rotate(-18.3386 6.11557 14.8321)" fill="#FFFCFA" stroke="#0D0A08"/>
<rect x="5.48364" y="14.5148" width="2.93882" height="27.4655" transform="rotate(-18.3386 5.48364 14.5148)" fill="#DDD9D8"/>
<rect x="6.11557" y="14.8321" width="6.37491" height="26.4655" transform="rotate(-18.3386 6.11557 14.8321)" stroke="#0D0A08"/>
<rect x="34.6559" y="13.5641" width="6.37491" height="26.4655" transform="rotate(16.9628 34.6559 13.5641)" fill="#FFFCFA" stroke="#0D0A08"/>
<rect x="34.3235" y="12.9399" width="1.97246" height="27.4655" transform="rotate(16.9628 34.3235 12.9399)" fill="#DDD9D8"/>
<rect x="36.9512" y="13.7412" width="1.88154" height="22.1247" transform="rotate(16.9628 36.9512 13.7412)" fill="#0D0A08"/>
<rect x="34.6559" y="13.5641" width="6.37491" height="26.4655" transform="rotate(16.9628 34.6559 13.5641)" stroke="#0D0A08"/>
<path d="M40.9858 14.6061L34.9207 12.7561L40.2658 6.09966L40.9858 14.6061Z" fill="#FF4343" stroke="#0D0A08" stroke-width="0.7"/>
<rect x="20.8944" y="4.47256" width="6.67491" height="26.7655" rx="3.33746" fill="#FFFCFA" stroke="#0D0A08" stroke-width="0.7"/>
<path d="M21.2495 6.6405C21.2495 5.63409 22.0654 4.81824 23.0718 4.81824H23.2393V26.8849H21.2495V6.6405Z" fill="#DDD9D8"/>
<rect x="20.8944" y="4.47256" width="6.67491" height="26.7655" rx="3.33746" stroke="#0D0A08" stroke-width="0.7"/>
<rect x="23.239" y="1.28174" width="1.98417" height="2.01883" fill="#FF4343"/>
<path d="M10.4038 25.8849H45.4038L43.4038 48.8849H12.4038L10.4038 25.8849Z" fill="#DDD9D8"/>
<path d="M9.86222 46.3849L7.94917 24.3849H41.8584L39.9454 46.3849H9.86222Z" fill="#FFFCFA" stroke="#0D0A08"/>
<rect x="10.4038" y="47.8849" width="35" height="5" fill="#DDD9D8"/>
<rect x="7.90381" y="46.3849" width="34" height="4" fill="#FFFCFA" stroke="#0D0A08"/>
<rect x="7.40381" y="46.5679" width="35" height="1.31702" fill="#DDD9D8"/>
<rect x="7.40381" y="46.5679" width="2.15063" height="3.55115" fill="#DDD9D8"/>
<rect x="7.90381" y="46.3849" width="34" height="4" stroke="#0D0A08"/>
<mask id="mask0_1782_531" style="mask-type:alpha" maskUnits="userSpaceOnUse" x="7" y="23" width="36" height="24">
<path d="M7.40381 23.8849H42.3218L40.3265 46.8849H9.39912L7.40381 23.8849Z" fill="#D9D9D9"/>
</mask>
<g mask="url(#mask0_1782_531)">
<path d="M10.6668 47.6884L8.76399 25.1884H43.0436L41.1408 47.6884H10.6668Z" stroke="#DDD9D8" stroke-width="2.5"/>
</g>
<path d="M9.86222 46.3849L7.94917 24.3849H41.8584L39.9454 46.3849H9.86222Z" stroke="#0D0A08"/>
</svg>
