<svg width="46" height="53" viewBox="0 0 46 53" fill="none" xmlns="http://www.w3.org/2000/svg">
<path d="M38.8665 11.3733L18.3175 8.20701C16.9529 7.99675 15.6762 8.93253 15.466 10.2971L11.6644 34.9691C11.4541 36.3337 12.3899 37.6104 13.7545 37.8206L34.3035 40.9869C35.6681 41.1972 36.9448 40.2614 37.1551 38.8968L40.9566 14.2249C41.1669 12.8602 40.2311 11.5836 38.8665 11.3733Z" fill="#FEFEFE" stroke="#0D0A08"/>
<path d="M18.2474 26.5762C18.1687 21.6607 20.131 14.7435 27.8087 15.9265C34.8993 17.019 34.8658 23.9214 33.3964 28.9105" stroke="#00AC86"/>
<path d="M19.9393 25.6206L18.7093 25.6661C18.1574 25.6866 17.7265 26.1506 17.747 26.7025L17.8842 30.4037C17.9046 30.9556 18.3686 31.3864 18.9205 31.366L20.1505 31.3204C20.7024 31.2999 21.1333 30.8359 21.1128 30.284L20.9756 26.5828C20.9552 26.0309 20.4912 25.6001 19.9393 25.6206Z" fill="#0D0A08"/>
<path d="M33.2387 27.8981L32.0795 27.4844C31.5594 27.2988 30.9872 27.57 30.8016 28.0901L29.5568 31.5784C29.3711 32.0986 29.6423 32.6707 30.1625 32.8563L31.3217 33.27C31.8419 33.4556 32.414 33.1844 32.5996 32.6643L33.8445 29.176C34.0301 28.6559 33.7589 28.0837 33.2387 27.8981Z" fill="#0D0A08"/>
<path d="M2.53605 9.19028C2.5101 9.81396 2.13991 14.6584 7.47422 14.1316C7.91465 14.0881 11.2606 13.3558 12.3231 11.5342C12.7816 10.7481 13.0816 9.72104 11.9095 7.18535C10.4371 3.99993 7.35896 6.19828 6.79312 1.97766C4.00986 3.63498 2.60188 7.60825 2.53605 9.19028Z" fill="#00AC86" stroke="#0D0A08" stroke-linecap="round"/>
<path d="M12.1664 12.8263L6.11523 14.8321L14.4421 39.9535L20.4933 37.9478L12.1664 12.8263Z" fill="#FEFEFE" stroke="#0D0A08"/>
<path d="M8.27297 13.5901L5.4834 14.5148L14.1249 40.5854L16.9145 39.6608L8.27297 13.5901Z" fill="#DDD9D8"/>
<path d="M12.1664 12.8263L6.11523 14.8321L14.4421 39.9535L20.4933 37.9478L12.1664 12.8263Z" stroke="#0D0A08"/>
<path d="M40.7538 15.424L34.6562 13.5641L26.9349 38.8782L33.0325 40.7381L40.7538 15.424Z" fill="#FEFEFE" stroke="#0D0A08"/>
<path d="M36.2099 13.5153L34.3232 12.9399L26.3102 39.2105L28.1968 39.7859L36.2099 13.5153Z" fill="#DDD9D8"/>
<path d="M38.7509 14.2902L36.9512 13.7412L30.4963 34.9034L32.296 35.4523L38.7509 14.2902Z" fill="#0D0A08"/>
<path d="M40.7538 15.424L34.6562 13.5641L26.9349 38.8782L33.0325 40.7381L40.7538 15.424Z" stroke="#0D0A08"/>
<path d="M40.986 14.6061L34.9209 12.7561L40.266 6.09967L40.986 14.6061Z" fill="#00AC86" stroke="#0D0A08" stroke-width="0.7"/>
<path d="M27.5694 7.80999C27.5694 5.96677 26.0752 4.47253 24.232 4.47253C22.3888 4.47253 20.8945 5.96677 20.8945 7.80999V27.9006C20.8945 29.7438 22.3888 31.238 24.232 31.238C26.0752 31.238 27.5694 29.7438 27.5694 27.9006V7.80999Z" fill="#FEFEFE" stroke="#0D0A08" stroke-width="0.7"/>
<path d="M21.249 6.6405C21.249 5.63409 22.0649 4.81824 23.0713 4.81824H23.2388V26.8849H21.249V6.6405Z" fill="#DDD9D8"/>
<path d="M27.5694 7.80999C27.5694 5.96677 26.0752 4.47253 24.232 4.47253C22.3888 4.47253 20.8945 5.96677 20.8945 7.80999V27.9006C20.8945 29.7438 22.3888 31.238 24.232 31.238C26.0752 31.238 27.5694 29.7438 27.5694 27.9006V7.80999Z" stroke="#0D0A08" stroke-width="0.7"/>
<path d="M25.2234 1.28174H23.2393V3.30057H25.2234V1.28174Z" fill="#00AC86"/>
<path d="M10.4033 25.8849H45.4033L43.4033 48.8849H12.4033L10.4033 25.8849Z" fill="#DDD9D8"/>
<path d="M9.86227 46.3849L7.94922 24.3849H41.8584L39.9454 46.3849H9.86227Z" fill="#FEFEFE" stroke="#0D0A08"/>
<path d="M45.4033 47.8849H10.4033V52.8849H45.4033V47.8849Z" fill="#DDD9D8"/>
<path d="M41.9043 46.3849H7.9043V50.3849H41.9043V46.3849Z" fill="#FEFEFE" stroke="#0D0A08"/>
<path d="M42.4043 46.5679H7.4043V47.8849H42.4043V46.5679Z" fill="#DDD9D8"/>
<path d="M9.55493 46.5679H7.4043V50.119H9.55493V46.5679Z" fill="#DDD9D8"/>
<path d="M41.9043 46.3849H7.9043V50.3849H41.9043V46.3849Z" stroke="#0D0A08"/>
<mask id="mask0_1919_608" style="mask-type:alpha" maskUnits="userSpaceOnUse" x="7" y="23" width="36" height="24">
<path d="M7.4043 23.8849H42.3223L40.327 46.8849H9.39961L7.4043 23.8849Z" fill="#D9D9D9"/>
</mask>
<g mask="url(#mask0_1919_608)">
<path d="M10.6675 47.6884L8.76465 25.1884H43.0443L41.1415 47.6884H10.6675Z" stroke="#DDD9D8" stroke-width="2.5"/>
</g>
<path d="M9.86227 46.3849L7.94922 24.3849H41.8584L39.9454 46.3849H9.86227Z" stroke="#0D0A08"/>
</svg>
