<svg width="16" height="16" viewBox="0 0 16 16" fill="none" xmlns="http://www.w3.org/2000/svg">
<path d="M15.4988 7.93138L15.4958 7.95857V7.98593C15.4958 8.19851 15.3333 8.36273 15.151 8.38593H15.1068H14.2179H13.7157L13.7179 8.88808L13.7373 13.3937L13.7373 13.3943C13.7414 14.1208 13.1631 14.7 12.4594 14.7H3.55586C2.85716 14.7 2.27793 14.1225 2.27793 13.4V8.88874V8.38874H1.77793H0.888965C0.672893 8.38874 0.5 8.22393 0.5 7.98593C0.5 7.86306 0.53303 7.76849 0.623255 7.67293L7.73418 1.39994L7.74706 1.38858L7.75914 1.37635C7.79376 1.3413 7.82392 1.32631 7.8543 1.31708C7.89079 1.306 7.93908 1.29999 8.01457 1.29999C8.12321 1.29999 8.21809 1.3327 8.27191 1.37603L11.224 4.00554L12.0565 4.74713V3.63218V2.59999C12.0565 2.37248 12.2357 2.19999 12.4455 2.19999H13.3345C13.5442 2.19999 13.7234 2.37248 13.7234 2.59999V6.00311V6.22719L13.8907 6.37631L15.3575 7.68413L15.3587 7.68519C15.4984 7.80901 15.5039 7.88522 15.4988 7.93138Z" stroke="#FFFCFA"/>
<path d="M8.00068 5.29999C8.47222 5.29999 8.92444 5.48963 9.25787 5.8272C9.59129 6.16476 9.77861 6.6226 9.77861 7.09999C9.77861 7.57738 9.59129 8.03521 9.25787 8.37278C8.92444 8.71035 8.47222 8.89999 8.00068 8.89999C7.52914 8.89999 7.07692 8.71035 6.74349 8.37278C6.41007 8.03521 6.22275 7.57738 6.22275 7.09999C6.22275 6.6226 6.41007 6.16476 6.74349 5.8272C7.07692 5.48963 7.52914 5.29999 8.00068 5.29999ZM4.8893 12.05C4.8893 10.8069 5.88383 9.79999 7.11172 9.79999H8.88964C10.1175 9.79999 11.1121 10.8069 11.1121 12.05C11.1121 12.2975 10.912 12.5 10.6676 12.5H5.33379C5.08932 12.5 4.8893 12.2975 4.8893 12.05Z" fill="#95ABE0"/>
</svg>
