<svg width="16" height="16" viewBox="0 0 16 16" fill="none" xmlns="http://www.w3.org/2000/svg">
<circle cx="8" cy="8" r="7.5" stroke="#FFFCFA"/>
<path d="M4.90918 9.536V8.348H8.32918V9.536H4.90918ZM4.90918 11.108V10.292H8.95318V11.108H4.90918ZM5.85718 12.5V3.98H8.89318C9.30118 3.98 9.66518 4.06 9.98518 4.22C10.3132 4.38 10.5892 4.592 10.8132 4.856C11.0452 5.12 11.2212 5.416 11.3412 5.744C11.4692 6.072 11.5332 6.408 11.5332 6.752C11.5332 7.224 11.4292 7.676 11.2212 8.108C11.0212 8.532 10.7292 8.876 10.3452 9.14C9.96918 9.404 9.50518 9.536 8.95318 9.536H7.21318V12.5H5.85718ZM7.21318 8.348H8.88118C9.19318 8.348 9.44118 8.28 9.62518 8.144C9.81718 8 9.95318 7.808 10.0332 7.568C10.1212 7.328 10.1652 7.056 10.1652 6.752C10.1652 6.44 10.1132 6.164 10.0092 5.924C9.91318 5.684 9.76118 5.5 9.55318 5.372C9.35318 5.236 9.10118 5.168 8.79718 5.168H7.21318V8.348Z" fill="#95ABE0"/>
</svg>
