<svg width="44" height="48" viewBox="0 0 44 48" fill="none" xmlns="http://www.w3.org/2000/svg">
<rect x="3" y="2.53027" width="35" height="45" rx="3" fill="#DDD9D8"/>
<rect x="0.5" y="1.03027" width="34" height="44" rx="2.5" fill="#FFFCFA" stroke="#0D0A08"/>
<mask id="path-3-inside-1_1782_512" fill="white">
<path d="M0 4.53027C0 2.32113 1.79086 0.530273 4 0.530273H31C33.2091 0.530273 35 2.32113 35 4.53027V41.5303C35 43.7394 33.2091 45.5303 31 45.5303H4C1.79086 45.5303 0 43.7394 0 41.5303V4.53027Z"/>
</mask>
<path d="M-2.5 4.53027C-2.5 0.940423 0.410149 -1.96973 4 -1.96973H28.5C32.0899 -1.96973 35 0.940423 35 4.53027C35 3.70185 33.2091 3.03027 31 3.03027H4C3.17157 3.03027 2.5 3.70185 2.5 4.53027H-2.5ZM35 45.5303H0H35ZM4 45.5303C0.410149 45.5303 -2.5 42.6201 -2.5 39.0303V4.53027C-2.5 0.940423 0.410149 -1.96973 4 -1.96973V3.03027C3.17157 3.03027 2.5 3.70185 2.5 4.53027V41.5303C2.5 43.7394 3.17157 45.5303 4 45.5303ZM35 0.530273V45.5303V0.530273Z" fill="#DDD9D8" mask="url(#path-3-inside-1_1782_512)"/>
<rect x="0.5" y="1.03027" width="34" height="44" rx="2.5" stroke="#0D0A08"/>
<rect x="5" y="7.53027" width="14" height="1" rx="0.5" fill="#0D0A08"/>
<rect x="5" y="15.5303" width="24" height="1" rx="0.5" fill="#0D0A08"/>
<rect x="5" y="19.5303" width="24" height="1" rx="0.5" fill="#0D0A08"/>
<rect x="5" y="23.5303" width="24" height="1" rx="0.5" fill="#0D0A08"/>
<rect x="5" y="27.5303" width="9" height="1" rx="0.5" fill="#0D0A08"/>
<rect x="5" y="35.5303" width="14" height="1" rx="0.5" fill="#FF4343"/>
<path d="M21.0652 31.0315C21.0652 31.0315 18.9289 35.1903 19.4646 35.6885C20.0002 36.1868 23.9939 33.7559 23.9939 33.7559L21.0652 31.0315Z" fill="#FF4343"/>
<path d="M38.1107 13.2215L40.5269 15.4691L23.976 33.2612L21.5598 31.0136L38.1107 13.2215Z" fill="#FFFCFA" stroke="#0D0A08" stroke-width="0.7"/>
<path d="M38.0928 12.7268L39.5002 14.036L22.4726 32.3407L21.0652 31.0315L38.0928 12.7268Z" fill="#DDD9D8"/>
<path d="M38.1107 13.2215L40.5269 15.4691L23.976 33.2612L21.5598 31.0136L38.1107 13.2215Z" stroke="#0D0A08" stroke-width="0.7"/>
<path d="M40.6298 11.4676L42.0942 12.8299C42.357 13.0744 42.3719 13.4856 42.1274 13.7485L40.3224 15.6888L37.9062 13.4411L39.7111 11.5008C39.9557 11.238 40.3669 11.2231 40.6298 11.4676Z" fill="#FFFCFA" stroke="#0D0A08" stroke-width="0.7"/>
</svg>
