<svg width="33" height="33" viewBox="0 0 33 33" fill="none" xmlns="http://www.w3.org/2000/svg">
<path d="M7.61956 3.19069C10.7511 1.10119 14.5192 0.182857 18.261 0.597205C22.0028 1.01155 25.4787 2.73205 28.0772 5.45606C30.6757 8.18008 32.2305 11.7331 32.4681 15.4903C32.7057 19.2475 31.6108 22.9681 29.3761 25.9977C27.1413 29.0274 23.9099 31.172 20.2501 32.0543C16.5903 32.9367 12.7365 32.5003 9.36673 30.8219C5.99691 29.1435 3.32684 26.3306 1.82616 22.878C0.325477 19.4253 0.0903084 15.5541 1.16202 11.9452" stroke="#FFFCFA"/>
<path d="M13.2436 14V8.552H14.0436V14H13.2436ZM9.81963 14V8.552H10.6196V14H9.81963ZM10.3476 11.712V10.96H13.4836V11.712H10.3476ZM18.9237 14V8.552H20.9237C21.297 8.552 21.6224 8.632 21.8997 8.792C22.1824 8.94667 22.401 9.15733 22.5557 9.424C22.7104 9.69067 22.7877 9.98933 22.7877 10.32C22.7877 10.6507 22.7104 10.9493 22.5557 11.216C22.401 11.4827 22.1824 11.6933 21.8997 11.848C21.6224 12.0027 21.297 12.08 20.9237 12.08H19.5797V11.328H20.7877C21.1397 11.328 21.4224 11.24 21.6357 11.064C21.849 10.8827 21.9557 10.6347 21.9557 10.32C21.9557 9.984 21.849 9.73067 21.6357 9.56C21.4224 9.38933 21.1397 9.304 20.7877 9.304H19.5717L19.7237 9.12V14H18.9237ZM21.9637 14L20.6917 11.736H21.5717L22.8437 14H21.9637ZM8.23623 24L9.23623 18.552H9.94823L11.4442 22.528H11.4682L12.9642 18.552H13.6762L14.6762 24H13.8362L13.3962 21.408C13.3322 21.0347 13.2789 20.6667 13.2362 20.304C13.1936 19.936 13.1669 19.568 13.1562 19.2H13.3562C13.2602 19.6427 13.1589 20.032 13.0522 20.368C12.9509 20.704 12.8336 21.0507 12.7002 21.408L11.7642 23.912H11.1482L10.2122 21.408C10.0789 21.0453 9.95889 20.6987 9.85223 20.368C9.75089 20.032 9.65223 19.6427 9.55623 19.2H9.75623C9.74556 19.568 9.71889 19.936 9.67623 20.304C9.63356 20.6667 9.58023 21.0347 9.51623 21.408L9.07623 24H8.23623ZM23.034 24L19.514 19.432L19.962 19.304V24H19.162V18.552H19.842L23.242 22.96H22.914V18.552H23.714V24H23.034Z" fill="#FFFCFA"/>
<circle cx="3.5" cy="6.5" r="1.5" fill="#95ABE0"/>
</svg>
