<svg width="20" height="18" viewBox="0 0 20 18" fill="none" xmlns="http://www.w3.org/2000/svg">
<path d="M19.4977 8.92788L19.4948 8.95507V8.98242C19.4948 9.31569 19.2386 9.57461 18.9462 9.60742H18.8835H17.7723H17.2702L17.2723 10.1096L17.2967 15.7416L17.2967 15.7422C17.3021 16.7183 16.5245 17.5 15.5742 17.5H4.44482C3.50096 17.5 2.72241 16.7207 2.72241 15.75V10.1109V9.61094H2.22241H1.11121C0.770123 9.61094 0.5 9.34699 0.5 8.98242C0.5 8.79644 0.553606 8.64608 0.692265 8.50106L9.58503 0.656204L9.59791 0.644839L9.60999 0.632616C9.66892 0.572953 9.72512 0.543897 9.78154 0.52676C9.84408 0.507765 9.91841 0.5 10.0182 0.5C10.1757 0.5 10.3259 0.546915 10.4209 0.624849L14.1131 3.9136L14.9457 4.65519V3.54023V2.25C14.9457 1.89804 15.2242 1.625 15.5569 1.625H16.6681C17.0008 1.625 17.2793 1.89804 17.2793 2.25V6.50391V6.72798L17.4465 6.87711L19.28 8.51187L19.2812 8.51294C19.4766 8.68598 19.5097 8.81844 19.4977 8.92788Z" stroke="#FFFCFA"/>
<path d="M10.0009 5.625C10.5903 5.625 11.1555 5.86205 11.5723 6.28401C11.9891 6.70597 12.2233 7.27826 12.2233 7.875C12.2233 8.47174 11.9891 9.04403 11.5723 9.46599C11.1555 9.88795 10.5903 10.125 10.0009 10.125C9.41143 10.125 8.84615 9.88795 8.42937 9.46599C8.01259 9.04403 7.77844 8.47174 7.77844 7.875C7.77844 7.27826 8.01259 6.70597 8.42937 6.28401C8.84615 5.86205 9.41143 5.625 10.0009 5.625ZM6.11163 14.0625C6.11163 12.5086 7.35479 11.25 8.88964 11.25H11.1121C12.6469 11.25 13.8901 12.5086 13.8901 14.0625C13.8901 14.3719 13.64 14.625 13.3345 14.625H6.66723C6.36165 14.625 6.11163 14.3719 6.11163 14.0625Z" fill="#95ABE0"/>
</svg>
