<svg width="16" height="16" viewBox="0 0 16 16" fill="none" xmlns="http://www.w3.org/2000/svg">
<path d="M5.99941 2C5.52531 2 5.14228 2.39102 5.14228 2.875V3.4C3.18695 3.80469 1.71375 5.57109 1.71375 7.6875V8.20156C1.71375 9.48672 1.25036 10.7281 0.41466 11.6906L0.216449 11.9176C-0.00854832 12.1746 -0.0621191 12.5438 0.0744863 12.8582C0.211092 13.1727 0.519123 13.375 0.856619 13.375H11.1422C11.4797 13.375 11.785 13.1727 11.9243 12.8582C12.0636 12.5438 12.0074 12.1746 11.7824 11.9176L11.5842 11.6906C10.7485 10.7281 10.2851 9.48945 10.2851 8.20156V7.6875C10.2851 5.57109 8.81187 3.80469 6.85654 3.4V2.875C6.85654 2.39102 6.47351 2 5.99941 2ZM7.21279 15.4887C7.53421 15.1605 7.71367 14.7148 7.71367 14.25H5.99941H4.28515C4.28515 14.7148 4.46461 15.1605 4.78603 15.4887C5.10746 15.8168 5.54406 16 5.99941 16C6.45476 16 6.89136 15.8168 7.21279 15.4887Z" fill="#FFFCFA"/>
<circle cx="13.5" cy="2.5" r="2.5" fill="#95ABE0"/>
</svg>
