<svg width="13" height="15" viewBox="0 0 13 15" fill="none" xmlns="http://www.w3.org/2000/svg">
<path fill-rule="evenodd" clip-rule="evenodd" d="M1 0C0.447715 0 0 0.447716 0 1V13C0 13.5523 0.447715 14 1 14H6.53513C6.19479 13.4117 6 12.7286 6 12C6 9.79086 7.79086 8 10 8C10.7286 8 11.4117 8.19479 12 8.53513V1C12 0.447715 11.5523 0 11 0H1Z" fill="#FFFCFA"/>
<rect x="2" y="2" width="8" height="1" rx="0.5" fill="#95ABE0"/>
<rect x="2" y="4" width="8" height="1" rx="0.5" fill="#95ABE0"/>
<rect x="2" y="6" width="8" height="1" rx="0.5" fill="#95ABE0"/>
<path d="M2 10.5C2 10.2239 2.22386 10 2.5 10H3V11H2.5C2.22386 11 2 10.7761 2 10.5V10.5Z" fill="#95ABE0"/>
<path d="M2 8.5C2 8.22386 2.22386 8 2.5 8H3V9H2.5C2.22386 9 2 8.77614 2 8.5V8.5Z" fill="#95ABE0"/>
<path d="M3 8V9H7.35819C7.80198 8.57452 8.72104 8.11157 9.72936 8H3Z" fill="#95ABE0"/>
<path d="M3 10V11H6.12891C6.1802 10.6641 6.44375 10.1953 6.53125 10H3Z" fill="#95ABE0"/>
<circle cx="10" cy="12" r="3" fill="#FFFCFA"/>
<path d="M11.9163 10.5879C12.0279 10.705 12.0279 10.8953 11.9163 11.0125L9.63084 13.4121C9.51925 13.5293 9.33802 13.5293 9.22643 13.4121L8.0837 12.2123C7.9721 12.0951 7.9721 11.9049 8.0837 11.7877C8.19529 11.6705 8.37652 11.6705 8.48812 11.7877L9.42908 12.7747L11.5128 10.5879C11.6244 10.4707 11.8056 10.4707 11.9172 10.5879H11.9163Z" fill="#95ABE0"/>
</svg>
