<svg width="18" height="10" viewBox="0 0 18 10" fill="none" xmlns="http://www.w3.org/2000/svg">
<path d="M9.09562 0.552136L6.37313 2.594C5.92031 2.93257 5.83312 3.54201 6.17625 3.97694C6.53906 4.44053 7.245 4.53169 7.73156 4.18009L10.5244 2.16948C10.7212 2.02884 11.0025 2.06009 11.1572 2.2424C11.3119 2.42471 11.2753 2.68515 11.0784 2.8284L10.4906 3.25031L15.4744 7.50072H16.65C17.3953 7.50072 18 6.94077 18 6.2506V2.91695C18 2.22678 17.3953 1.66683 16.65 1.66683H14.5125H14.4H14.3803L14.2706 1.60172L12.2287 0.390663C11.7984 0.13543 11.295 0 10.7831 0C10.17 0 9.57375 0.195331 9.09562 0.552136ZM9.73688 3.79203L8.28281 4.83901C7.39687 5.47969 6.11156 5.31301 5.44781 4.46918C4.82344 3.67483 4.98094 2.56535 5.805 1.9481L8.145 0.195331C7.81875 0.0677149 7.46719 0.00260438 7.11 0.00260438C6.58125 -3.9814e-08 6.06656 0.145847 5.625 0.416707L3.6 1.66683H1.35C0.604687 1.66683 0 2.22678 0 2.91695V6.2506C0 6.94077 0.604687 7.50072 1.35 7.50072H4.39312L6.96375 9.6728C7.515 10.139 8.36719 10.1025 8.87062 9.59207C9.02531 9.4332 9.12938 9.24829 9.18281 9.05556L9.66094 9.46185C10.2094 9.92804 11.0644 9.89418 11.5678 9.38632C11.6944 9.2587 11.7872 9.11025 11.8462 8.95659C12.3919 9.29516 13.1344 9.22485 13.5928 8.76126C14.0962 8.2534 14.0597 7.46166 13.5112 6.99546L9.73688 3.79203Z" fill="#FFFCFA"/>
<path d="M6.37313 2.594L9.09562 0.552136C9.57375 0.195331 10.17 0 10.7831 0C11.295 0 11.7984 0.13543 12.2287 0.390663L14.2706 1.60172L14.3803 1.66683H14.4H14.5125H16.65C17.3953 1.66683 18 2.22678 18 2.91695V6.2506C18 6.94077 17.3953 7.50072 16.65 7.50072H15.4744L10.4906 3.25031L11.0784 2.8284C11.2753 2.68515 11.3119 2.42471 11.1572 2.2424C11.0025 2.06009 10.7212 2.02884 10.5244 2.16948L7.73156 4.18009C7.245 4.53169 6.53906 4.44053 6.17625 3.97694C5.83313 3.54201 5.92031 2.93257 6.37313 2.594Z" fill="#95ABE0"/>
</svg>
