<svg width="16" height="13" viewBox="0 0 16 13" fill="none" xmlns="http://www.w3.org/2000/svg">
<path d="M8.23765 9.69241C8.05686 9.8561 7.98556 10.1133 8.07977 10.342C8.13834 10.4797 8.202 10.6148 8.2733 10.7447L8.35224 10.885C8.42863 11.0149 8.51266 11.1422 8.60179 11.2644C8.74693 11.4618 9.00158 11.5268 9.23075 11.4488L9.94884 11.2072C10.2213 11.4358 10.5345 11.6229 10.8706 11.7502L11.026 12.5037C11.0744 12.7454 11.2577 12.9376 11.4971 12.9662C11.6651 12.9896 11.8357 13 12.0089 13H12.0267C12.1999 13 12.3705 12.9896 12.5385 12.9688C12.7779 12.9402 12.9613 12.7454 13.0096 12.5063L13.165 11.7502C13.5036 11.6203 13.8143 11.4358 14.0868 11.2072L14.8074 11.4462C15.0366 11.5242 15.2912 11.4592 15.4364 11.2618C15.5255 11.1396 15.6095 11.0123 15.6885 10.8824L15.7649 10.7447C15.8362 10.6148 15.8998 10.4797 15.9584 10.3394C16.0526 10.1133 15.9813 9.8561 15.8005 9.68981L15.2352 9.17536C15.2632 9.00127 15.2785 8.8194 15.2785 8.63492C15.2785 8.45044 15.2632 8.26856 15.2352 8.09188L15.8005 7.57743C15.9813 7.41374 16.0526 7.15651 15.9584 6.92786C15.8998 6.79015 15.8362 6.65504 15.7649 6.52253L15.6885 6.38742C15.6121 6.25491 15.528 6.13019 15.4364 6.00808C15.2912 5.81061 15.0366 5.74565 14.8074 5.8236L14.0893 6.06524C13.8168 5.83659 13.5036 5.64952 13.1675 5.5222L13.0122 4.76611C12.9638 4.52447 12.7805 4.3322 12.5411 4.30362C12.3705 4.28283 12.1973 4.27244 12.0216 4.27244C11.8459 4.27244 11.6728 4.28283 11.5022 4.30362C11.2628 4.3322 11.0795 4.52707 11.0311 4.76611L10.8757 5.5222C10.5371 5.65211 10.2264 5.83659 9.95394 6.06524L9.23585 5.8236C9.00667 5.74565 8.75203 5.81061 8.60688 6.00808C8.51776 6.13019 8.43373 6.25491 8.35733 6.38742L8.27839 6.52773C8.20709 6.65764 8.14343 6.79275 8.08487 6.93046C7.99065 7.15651 8.06195 7.41374 8.24274 7.58002L8.80805 8.09448C8.78004 8.27116 8.76476 8.45304 8.76476 8.63752C8.76476 8.82199 8.78004 9.00387 8.80805 9.18055L8.24274 9.69501L8.23765 9.69241ZM13.2414 8.63492C13.2414 8.96569 13.1126 9.28291 12.8834 9.5168C12.6541 9.75069 12.3432 9.88209 12.0191 9.88209C11.6949 9.88209 11.384 9.75069 11.1548 9.5168C10.9256 9.28291 10.7968 8.96569 10.7968 8.63492C10.7968 8.30415 10.9256 7.98693 11.1548 7.75304C11.384 7.51915 11.6949 7.38775 12.0191 7.38775C12.3432 7.38775 12.6541 7.51915 12.8834 7.75304C13.1126 7.98693 13.2414 8.30415 13.2414 8.63492ZM3.24159 0.203559C3.08116 0.019082 2.82907 -0.0536696 2.60498 0.0424661C2.47002 0.102226 2.33761 0.167183 2.21029 0.239934L2.07278 0.32048C1.94546 0.398428 1.82069 0.484171 1.701 0.57511C1.50748 0.723211 1.44382 0.983037 1.52021 1.21688L1.75703 1.94959C1.53294 2.22761 1.3496 2.54719 1.22482 2.89016L0.483819 3.04866C0.247002 3.09802 0.0585678 3.2851 0.0305573 3.52933C0.0101859 3.70342 -2.96077e-08 3.8801 -2.96077e-08 4.05938C-2.96077e-08 4.23866 0.0101859 4.41534 0.0305573 4.58942C0.0585678 4.83366 0.249549 5.02074 0.483819 5.0701L1.22482 5.2312C1.35215 5.57676 1.53294 5.89375 1.75703 6.17177L1.52021 6.90448C1.44382 7.13832 1.50748 7.39815 1.701 7.54625C1.82069 7.63719 1.94546 7.72293 2.07278 7.80348L2.20774 7.88142C2.33506 7.95417 2.46748 8.01913 2.60498 8.07889C2.82652 8.17503 3.07862 8.10228 3.24159 7.9178L3.74578 7.34098C3.91893 7.36957 4.09718 7.38516 4.27798 7.38516C4.45877 7.38516 4.63702 7.36957 4.81018 7.34098L5.31437 7.9178C5.47479 8.10228 5.72689 8.17503 5.95097 8.07889C6.08593 8.01913 6.21834 7.95417 6.34821 7.88142L6.48063 7.80348C6.61049 7.72553 6.73272 7.63979 6.8524 7.54625C7.04593 7.39815 7.10959 7.13832 7.0332 6.90448L6.79638 6.17177C7.02047 5.89375 7.20381 5.57417 7.32858 5.2312L8.06959 5.0753C8.3064 5.02593 8.49484 4.83886 8.52285 4.59462C8.54322 4.42054 8.55341 4.24386 8.55341 4.06458C8.55341 3.8853 8.54322 3.70861 8.52285 3.53453C8.49484 3.29029 8.30386 3.10322 8.06959 3.05385L7.32858 2.89536C7.20126 2.54979 7.02047 2.2328 6.79638 1.95479L7.0332 1.22208C7.10959 0.988234 7.04593 0.728408 6.8524 0.580307C6.73272 0.489367 6.61049 0.403625 6.48063 0.325677L6.34312 0.245131C6.2158 0.17238 6.08338 0.107423 5.94842 0.0476629C5.72689 -0.0484728 5.47479 0.0242789 5.31182 0.208755L4.80763 0.785569C4.63447 0.756988 4.45623 0.741399 4.27543 0.741399C4.09463 0.741399 3.91639 0.756988 3.74323 0.785569L3.23904 0.208755L3.24159 0.203559ZM4.27798 5.30914C4.11746 5.30914 3.95852 5.27689 3.81023 5.21421C3.66194 5.15153 3.52719 5.05967 3.41369 4.94386C3.3002 4.82805 3.21016 4.69056 3.14874 4.53925C3.08731 4.38793 3.0557 4.22576 3.0557 4.06198C3.0557 3.8982 3.08731 3.73602 3.14874 3.58471C3.21016 3.4334 3.3002 3.29591 3.41369 3.1801C3.52719 3.06429 3.66194 2.97242 3.81023 2.90975C3.95852 2.84707 4.11746 2.81481 4.27798 2.81481C4.43849 2.81481 4.59743 2.84707 4.74572 2.90975C4.89402 2.97242 5.02876 3.06429 5.14226 3.1801C5.25576 3.29591 5.34579 3.4334 5.40722 3.58471C5.46864 3.73602 5.50026 3.8982 5.50026 4.06198C5.50026 4.22576 5.46864 4.38793 5.40722 4.53925C5.34579 4.69056 5.25576 4.82805 5.14226 4.94386C5.02876 5.05967 4.89402 5.15153 4.74572 5.21421C4.59743 5.27689 4.43849 5.30914 4.27798 5.30914Z" fill="#FFFCFA"/>
<path d="M8.23765 9.69241C8.05686 9.8561 7.98556 10.1133 8.07977 10.342C8.13834 10.4797 8.202 10.6148 8.2733 10.7447L8.35224 10.885C8.42863 11.0149 8.51266 11.1422 8.60179 11.2644C8.74693 11.4618 9.00158 11.5268 9.23075 11.4488L9.94884 11.2072C10.2213 11.4358 10.5345 11.6229 10.8706 11.7502L11.026 12.5037C11.0744 12.7454 11.2577 12.9376 11.4971 12.9662C11.6651 12.9896 11.8357 13 12.0089 13H12.0267C12.1999 13 12.3705 12.9896 12.5385 12.9688C12.7779 12.9402 12.9613 12.7454 13.0096 12.5063L13.165 11.7502C13.5036 11.6203 13.8143 11.4358 14.0868 11.2072L14.8074 11.4462C15.0366 11.5242 15.2912 11.4592 15.4364 11.2618C15.5255 11.1396 15.6095 11.0123 15.6885 10.8824L15.7649 10.7447C15.8362 10.6148 15.8998 10.4797 15.9584 10.3394C16.0526 10.1133 15.9813 9.8561 15.8005 9.68981L15.2352 9.17536C15.2632 9.00127 15.2785 8.8194 15.2785 8.63492C15.2785 8.45044 15.2632 8.26856 15.2352 8.09188L15.8005 7.57743C15.9813 7.41374 16.0526 7.15651 15.9584 6.92786C15.8998 6.79015 15.8362 6.65504 15.7649 6.52253L15.6885 6.38742C15.6121 6.25491 15.528 6.13019 15.4364 6.00808C15.2912 5.81061 15.0366 5.74565 14.8074 5.8236L14.0893 6.06524C13.8168 5.83659 13.5036 5.64952 13.1675 5.5222L13.0122 4.76611C12.9638 4.52447 12.7805 4.3322 12.5411 4.30362C12.3705 4.28283 12.1973 4.27244 12.0216 4.27244C11.8459 4.27244 11.6728 4.28283 11.5022 4.30362C11.2628 4.3322 11.0795 4.52707 11.0311 4.76611L10.8757 5.5222C10.5371 5.65211 10.2264 5.83659 9.95394 6.06524L9.23585 5.8236C9.00667 5.74565 8.75203 5.81061 8.60688 6.00808C8.51776 6.13019 8.43373 6.25491 8.35733 6.38742L8.27839 6.52773C8.20709 6.65764 8.14343 6.79275 8.08487 6.93046C7.99065 7.15651 8.06195 7.41374 8.24274 7.58002L8.80805 8.09448C8.78004 8.27116 8.76476 8.45304 8.76476 8.63752C8.76476 8.82199 8.78004 9.00387 8.80805 9.18055L8.24274 9.69501L8.23765 9.69241ZM13.2414 8.63492C13.2414 8.96569 13.1126 9.28291 12.8834 9.5168C12.6541 9.75069 12.3432 9.88209 12.0191 9.88209C11.6949 9.88209 11.384 9.75069 11.1548 9.5168C10.9256 9.28291 10.7968 8.96569 10.7968 8.63492C10.7968 8.30415 10.9256 7.98693 11.1548 7.75304C11.384 7.51915 11.6949 7.38775 12.0191 7.38775C12.3432 7.38775 12.6541 7.51915 12.8834 7.75304C13.1126 7.98693 13.2414 8.30415 13.2414 8.63492Z" fill="#95ABE0"/>
</svg>
