<svg width="33" height="54" viewBox="0 0 33 54" fill="none" xmlns="http://www.w3.org/2000/svg">
<g clip-path="url(#clip0_1919_458)">
<path d="M12 53V54H25V53H12Z" fill="#DDD9D8"/>
<path d="M20 48H17V53H20V48Z" fill="#DDD9D8"/>
<path d="M32 35C32 42.1797 26.1797 48 19 48H17C9.8203 48 4 42.1797 4 35" stroke="#DDD9D8" stroke-linecap="round"/>
<path d="M28 23C28 17.4772 23.5228 13 18 13C12.4772 13 8 17.4772 8 23V34C8 39.5228 12.4772 44 18 44C23.5228 44 28 39.5228 28 34V23Z" fill="#DDD9D8"/>
<path d="M9 51V52H22V51H9Z" fill="#0D0A08"/>
<path d="M17 46H14V51H17V46Z" fill="#0D0A08"/>
<path d="M29 33C29 40.1797 23.1797 46 16 46H14C6.8203 46 1 40.1797 1 33" stroke="#0D0A08" stroke-linecap="round"/>
<path d="M24.5 21C24.5 15.7533 20.2467 11.5 15 11.5C9.75329 11.5 5.5 15.7533 5.5 21V32C5.5 37.2467 9.75329 41.5 15 41.5C20.2467 41.5 24.5 37.2467 24.5 32V21Z" fill="#FEFEFE" stroke="#0D0A08"/>
<mask id="mask0_1919_458" style="mask-type:alpha" maskUnits="userSpaceOnUse" x="6" y="12" width="19" height="30">
<path fill-rule="evenodd" clip-rule="evenodd" d="M15 12C10.0294 12 6 16.0294 6 21V32C6 34.6652 7.15846 37.0598 8.99931 38.7077C9.54595 39.5462 10.2981 40.2535 11.2086 40.7502C12.0576 41.2133 13.0036 41.4709 13.9706 41.485C14.5572 41.4935 15.257 41.5 16 41.5C19.8888 41.5 22.5086 38.2182 23.8063 35.6427C24.3383 34.5869 24.5 33.3978 24.5 32.2155V20C24.5 17.8338 23.2931 15.9234 21.9686 14.5282C21.4291 13.9599 20.6018 13.5639 19.6699 13.3048C18.3084 12.4768 16.7099 12 15 12ZM19.6699 13.3048C18.1282 12.8761 16.2999 12.8217 15.0134 12.9806C10.1968 13.5755 8 17.5478 8 22.4011V35.3452C8 36.5611 8.35844 37.7246 8.99931 38.7077C10.5917 40.1332 12.6946 41 15 41C19.9706 41 24 36.9706 24 32V21C24 17.7393 22.266 14.8837 19.6699 13.3048Z" fill="#DDD9D8"/>
<mask id="mask1_1919_458" style="mask-type:alpha" maskUnits="userSpaceOnUse" x="6" y="12" width="19" height="30">
<path fill-rule="evenodd" clip-rule="evenodd" d="M15 12C10.0294 12 6 16.0294 6 21V32C6 34.6652 7.15846 37.0598 8.99931 38.7077C9.54595 39.5462 10.2981 40.2535 11.2086 40.7502C12.0576 41.2133 13.0036 41.4709 13.9706 41.485C14.5572 41.4935 15.257 41.5 16 41.5C19.8888 41.5 22.5086 38.2182 23.8063 35.6427C24.3383 34.5869 24.5 33.3978 24.5 32.2155V20C24.5 17.8338 23.2931 15.9234 21.9686 14.5282C21.4291 13.9599 20.6018 13.5639 19.6699 13.3048C18.3084 12.4768 16.7099 12 15 12ZM19.6699 13.3048C18.1282 12.8761 16.2999 12.8217 15.0134 12.9806C10.1968 13.5755 8 17.5478 8 22.4011V35.3452C8 36.5611 8.35844 37.7246 8.99931 38.7077C10.5917 40.1332 12.6946 41 15 41C19.9706 41 24 36.9706 24 32V21C24 17.7393 22.266 14.8837 19.6699 13.3048Z" fill="white"/>
</mask>
<g mask="url(#mask1_1919_458)">
<path d="M7 21C7 16.5817 10.5817 13 15 13V11C9.47715 11 5 15.4772 5 21H7ZM7 32V21H5V32H7ZM9.6663 37.9626C8.02839 36.4964 7 34.3689 7 32H5C5 34.9614 6.28853 37.6231 8.33232 39.4528L9.6663 37.9626ZM8.16159 39.2538C8.79695 40.2284 9.67143 41.0508 10.7297 41.6281L11.6874 39.8723C10.9247 39.4563 10.2949 38.864 9.83703 38.1616L8.16159 39.2538ZM10.7297 41.6281C11.7157 42.1659 12.8204 42.4684 13.9561 42.4849L13.9851 40.4851C13.1867 40.4735 12.3994 40.2606 11.6874 39.8723L10.7297 41.6281ZM13.9561 42.4849C14.5466 42.4934 15.2514 42.5 16 42.5V40.5C15.2627 40.5 14.5678 40.4935 13.9851 40.4851L13.9561 42.4849ZM16 42.5C20.4921 42.5 23.3654 38.7402 24.6993 36.0927L22.9132 35.1928C21.6519 37.6962 19.2854 40.5 16 40.5V42.5ZM24.6993 36.0927C25.3293 34.8424 25.5 33.4782 25.5 32.2155H23.5C23.5 33.3175 23.3473 34.3314 22.9132 35.1928L24.6993 36.0927ZM25.5 32.2155V20H23.5V32.2155H25.5ZM25.5 20C25.5 17.4641 24.097 15.3178 22.6938 13.8397L21.2433 15.2167C22.4891 16.529 23.5 18.2034 23.5 20H25.5ZM22.6938 13.8397C21.9762 13.0838 20.9503 12.6229 19.9377 12.3414L19.402 14.2682C20.2534 14.505 20.882 14.836 21.2433 15.2167L22.6938 13.8397ZM15 13C16.5215 13 17.941 13.4238 19.1502 14.1592L20.1895 12.4504C18.6759 11.5299 16.8983 11 15 11V13ZM19.9377 12.3414C18.2491 11.8718 16.2859 11.8159 14.8909 11.9882L15.136 13.9731C16.3139 13.8276 18.0072 13.8804 19.402 14.2682L19.9377 12.3414ZM14.8909 11.9882C12.2038 12.32 10.1929 13.6132 8.87651 15.5273C7.57901 17.4141 7 19.8361 7 22.4011H9C9 20.1129 9.51938 18.1221 10.5244 16.6606C11.5106 15.2266 13.0064 14.2361 15.136 13.9731L14.8909 11.9882ZM7 22.4011V35.3452H9V22.4011H7ZM7 35.3452C7 36.7586 7.4168 38.1113 8.16159 39.2538L9.83703 38.1616C9.30008 37.3379 9 36.3636 9 35.3452H7ZM15 40C12.9501 40 11.0824 39.2303 9.6663 37.9626L8.33232 39.4528C10.1009 41.036 12.4391 42 15 42V40ZM23 32C23 36.4183 19.4183 40 15 40V42C20.5228 42 25 37.5228 25 32H23ZM23 21V32H25V21H23ZM19.1502 14.1592C21.4606 15.5642 23 18.1028 23 21H25C25 17.3759 23.0715 14.2031 20.1895 12.4504L19.1502 14.1592Z" fill="#DDD9D8"/>
</g>
</mask>
<g mask="url(#mask0_1919_458)">
<path d="M24.5 21C24.5 15.7533 20.2467 11.5 15 11.5C9.75329 11.5 5.5 15.7533 5.5 21V32C5.5 37.2467 9.75329 41.5 15 41.5C20.2467 41.5 24.5 37.2467 24.5 32V21Z" fill="#DDD9D8" stroke="#DDD9D8"/>
</g>
<path d="M24.5 21C24.5 15.7533 20.2467 11.5 15 11.5C9.75329 11.5 5.5 15.7533 5.5 21V32C5.5 37.2467 9.75329 41.5 15 41.5C20.2467 41.5 24.5 37.2467 24.5 32V21Z" stroke="#0D0A08"/>
<path d="M24 18H20C19.4477 18 19 18.4477 19 19C19 19.5523 19.4477 20 20 20H24V18Z" fill="#0D0A08"/>
<path d="M24 23H20C19.4477 23 19 23.4477 19 24C19 24.5523 19.4477 25 20 25H24V23Z" fill="#0D0A08"/>
<path d="M24 28H20C19.4477 28 19 28.4477 19 29C19 29.5523 19.4477 30 20 30H24V28Z" fill="#0D0A08"/>
<path d="M24 33H20C19.4477 33 19 33.4477 19 34C19 34.5523 19.4477 35 20 35H24V33Z" fill="#0D0A08"/>
<path d="M6 18H10C10.5523 18 11 18.4477 11 19C11 19.5523 10.5523 20 10 20H6V18Z" fill="#0D0A08"/>
<path d="M6 23H10C10.5523 23 11 23.4477 11 24C11 24.5523 10.5523 25 10 25H6V23Z" fill="#0D0A08"/>
<path d="M6 28H10C10.5523 28 11 28.4477 11 29C11 29.5523 10.5523 30 10 30H6V28Z" fill="#0D0A08"/>
<path d="M6 33H10C10.5523 33 11 33.4477 11 34C11 34.5523 10.5523 35 10 35H6V33Z" fill="#0D0A08"/>
<path d="M27.3134 6.2094C27.4682 5.98074 27.4083 5.66987 27.1797 5.51505C26.951 5.36024 26.6401 5.42011 26.4853 5.64878L23.6863 9.78302C23.5315 10.0117 23.5914 10.3226 23.82 10.4774C24.0487 10.6322 24.3596 10.5723 24.5144 10.3436L27.3134 6.2094Z" fill="#00AC86"/>
<path d="M6.31117 9.71546C6.46787 9.94284 6.41057 10.2542 6.18319 10.4109C5.95581 10.5676 5.64446 10.5103 5.48776 10.2829L2.68751 6.21954C2.53081 5.99216 2.58811 5.68081 2.81549 5.52411C3.04287 5.36741 3.35422 5.42471 3.51092 5.65209L6.31117 9.71546Z" fill="#00AC86"/>
<path d="M15.5 0.5C15.5 0.223858 15.2761 0 15 0C14.7239 0 14.5 0.223858 14.5 0.5V5.48144C14.5 5.75758 14.7239 5.98144 15 5.98144C15.2761 5.98144 15.5 5.75758 15.5 5.48144V0.5Z" fill="#00AC86"/>
<path d="M21.8022 2.80971C21.8943 2.5494 21.758 2.26367 21.4977 2.17151C21.2374 2.07935 20.9517 2.21566 20.8595 2.47597L19.197 7.17181C19.1048 7.43212 19.2412 7.71785 19.5015 7.81001C19.7618 7.90217 20.0475 7.76585 20.1397 7.50554L21.8022 2.80971Z" fill="#00AC86"/>
<path d="M9.12959 2.47733C9.03643 2.21738 8.75018 2.08216 8.49022 2.17532C8.23027 2.26848 8.09505 2.55473 8.18821 2.81468L9.8687 7.5041C9.96186 7.76406 10.2481 7.89928 10.5081 7.80612C10.768 7.71296 10.9032 7.42671 10.8101 7.16675L9.12959 2.47733Z" fill="#00AC86"/>
</g>
<defs>
<clipPath id="clip0_1919_458">
<rect width="33" height="54" fill="white"/>
</clipPath>
</defs>
</svg>
