<svg width="44" height="48" viewBox="0 0 44 48" fill="none" xmlns="http://www.w3.org/2000/svg">
<path d="M35 2.53027H6C4.34315 2.53027 3 3.87342 3 5.53027V44.5303C3 46.1871 4.34315 47.5303 6 47.5303H35C36.6569 47.5303 38 46.1871 38 44.5303V5.53027C38 3.87342 36.6569 2.53027 35 2.53027Z" fill="#DDD9D8"/>
<path d="M32 1.03027H3C1.61929 1.03027 0.5 2.14956 0.5 3.53027V42.5303C0.5 43.911 1.61929 45.0303 3 45.0303H32C33.3807 45.0303 34.5 43.911 34.5 42.5303V3.53027C34.5 2.14956 33.3807 1.03027 32 1.03027Z" fill="#FEFEFE" stroke="#0D0A08"/>
<mask id="mask0_1919_567" style="mask-type:luminance" maskUnits="userSpaceOnUse" x="0" y="0" width="35" height="46">
<path d="M0 4.53027C0 2.32113 1.79086 0.530273 4 0.530273H31C33.2091 0.530273 35 2.32113 35 4.53027V41.5303C35 43.7394 33.2091 45.5303 31 45.5303H4C1.79086 45.5303 0 43.7394 0 41.5303V4.53027Z" fill="white"/>
</mask>
<g mask="url(#mask0_1919_567)">
<path d="M-2.5 4.53027C-2.5 0.940426 0.410149 -1.96973 4 -1.96973H28.5C32.0899 -1.96973 35 0.940426 35 4.53027C35 3.70185 33.2091 3.03027 31 3.03027H4C3.17157 3.03027 2.5 3.70185 2.5 4.53027H-2.5ZM4 45.5303C0.410149 45.5303 -2.5 42.6201 -2.5 39.0303V4.53027C-2.5 0.940426 0.410149 -1.96973 4 -1.96973V3.03027C3.17157 3.03027 2.5 3.70185 2.5 4.53027V41.5303C2.5 43.7394 3.17157 45.5303 4 45.5303Z" fill="#DDD9D8"/>
</g>
<path d="M32 1.03027H3C1.61929 1.03027 0.5 2.14956 0.5 3.53027V42.5303C0.5 43.911 1.61929 45.0303 3 45.0303H32C33.3807 45.0303 34.5 43.911 34.5 42.5303V3.53027C34.5 2.14956 33.3807 1.03027 32 1.03027Z" stroke="#0D0A08"/>
<path d="M18.5 7.53027H5.5C5.22386 7.53027 5 7.75413 5 8.03027C5 8.30642 5.22386 8.53027 5.5 8.53027H18.5C18.7761 8.53027 19 8.30642 19 8.03027C19 7.75413 18.7761 7.53027 18.5 7.53027Z" fill="#0D0A08"/>
<path d="M28.5 15.5303H5.5C5.22386 15.5303 5 15.7541 5 16.0303C5 16.3064 5.22386 16.5303 5.5 16.5303H28.5C28.7761 16.5303 29 16.3064 29 16.0303C29 15.7541 28.7761 15.5303 28.5 15.5303Z" fill="#0D0A08"/>
<path d="M28.5 19.5303H5.5C5.22386 19.5303 5 19.7541 5 20.0303C5 20.3064 5.22386 20.5303 5.5 20.5303H28.5C28.7761 20.5303 29 20.3064 29 20.0303C29 19.7541 28.7761 19.5303 28.5 19.5303Z" fill="#0D0A08"/>
<path d="M28.5 23.5303H5.5C5.22386 23.5303 5 23.7541 5 24.0303C5 24.3064 5.22386 24.5303 5.5 24.5303H28.5C28.7761 24.5303 29 24.3064 29 24.0303C29 23.7541 28.7761 23.5303 28.5 23.5303Z" fill="#0D0A08"/>
<path d="M13.5 27.5303H5.5C5.22386 27.5303 5 27.7541 5 28.0303C5 28.3064 5.22386 28.5303 5.5 28.5303H13.5C13.7761 28.5303 14 28.3064 14 28.0303C14 27.7541 13.7761 27.5303 13.5 27.5303Z" fill="#0D0A08"/>
<path d="M18.5 35.5303H5.5C5.22386 35.5303 5 35.7541 5 36.0303C5 36.3064 5.22386 36.5303 5.5 36.5303H18.5C18.7761 36.5303 19 36.3064 19 36.0303C19 35.7541 18.7761 35.5303 18.5 35.5303Z" fill="#00AC86"/>
<path d="M21.0647 31.0315C21.0647 31.0315 18.9284 35.1903 19.4641 35.6885C19.9997 36.1868 23.9934 33.7559 23.9934 33.7559L21.0647 31.0315Z" fill="#00AC86"/>
<path d="M38.1105 13.2215L40.5267 15.4691L23.9758 33.2612L21.5596 31.0136L38.1105 13.2215Z" fill="#FEFEFE" stroke="#0D0A08" stroke-width="0.7"/>
<path d="M38.093 12.7268L39.5004 14.036L22.4728 32.3407L21.0654 31.0315L38.093 12.7268Z" fill="#DDD9D8"/>
<path d="M38.1105 13.2215L40.5267 15.4691L23.9758 33.2612L21.5596 31.0136L38.1105 13.2215Z" stroke="#0D0A08" stroke-width="0.7"/>
<path d="M40.6298 11.4676L42.0942 12.8299C42.357 13.0744 42.3719 13.4856 42.1274 13.7485L40.3224 15.6888L37.9062 13.4411L39.7112 11.5008C39.9558 11.238 40.3669 11.2231 40.6298 11.4676Z" fill="#FEFEFE" stroke="#0D0A08" stroke-width="0.7"/>
</svg>
